<svg width="34" height="34" viewBox="0 0 34 34" fill="none" xmlns="http://www.w3.org/2000/svg">
<path d="M17 0.340088C7.7996 0.340088 0.339996 7.79969 0.339996 17.0001C0.339996 26.2005 7.7996 33.6601 17 33.6601C26.2004 33.6601 33.66 26.2005 33.66 17.0001C33.66 7.79969 26.2004 0.340088 17 0.340088ZM21.3622 16.3133L28.2914 9.55749C28.4886 9.75129 28.6076 10.0233 28.6076 10.3225V23.9225C28.6076 24.2047 28.4954 24.4597 28.3186 24.6501L21.3622 16.3133ZM6.205 9.52689C6.3954 9.35349 6.6402 9.24809 6.9156 9.24809H27.54C27.8154 9.24809 28.0636 9.35689 28.2506 9.52689L17.2278 18.1969L6.205 9.52689ZM6.137 24.6501C5.9602 24.4597 5.848 24.2047 5.848 23.9225V10.3225C5.848 10.0233 5.9704 9.75469 6.1676 9.55749L13.0968 16.3133L6.137 24.6501ZM17.2278 20.3423L20.1212 17.5203L28.271 24.6977C28.0806 24.8813 27.8256 24.9935 27.54 24.9935H6.9156C6.6334 24.9935 6.375 24.8813 6.1846 24.6977L14.3344 17.5203L17.2278 20.3423Z" fill="#53B1FF"/>
</svg>
