<svg width="46" height="23" viewBox="0 0 46 23" fill="none" xmlns="http://www.w3.org/2000/svg">
<path d="M1.79688 12.9375L39.8509 12.9375L33.5471 19.2108C32.8437 19.9108 32.841 21.0485 33.5411 21.7519C34.2411 22.4554 35.3789 22.458 36.0823 21.758L45.4713 12.4143C45.472 12.4137 45.4724 12.4131 45.4729 12.4126C46.1745 11.7125 46.1768 10.5711 45.4731 9.86872C45.4725 9.86818 45.472 9.86756 45.4715 9.86702L36.0825 0.523273C35.3792 -0.17661 34.2414 -0.174184 33.5413 0.529382C32.8412 1.23277 32.8439 2.37046 33.5473 3.07052L39.8509 9.34377L1.79688 9.34376C0.804464 9.34376 1.0607e-06 10.1482 9.73943e-07 11.1406C8.87184e-07 12.133 0.804463 12.9375 1.79688 12.9375Z" fill="#15A8AB"/>
</svg>
