<svg width="1200" height="352" viewBox="0 0 1200 352" fill="none" xmlns="http://www.w3.org/2000/svg">
<path fill-rule="evenodd" clip-rule="evenodd" d="M241.739 279.809C238.283 301.29 218.036 315.858 196.555 312.401C175.073 308.697 160.506 288.451 163.962 266.969C167.666 245.488 187.913 230.92 209.394 234.377C230.875 238.081 245.443 258.327 241.739 279.809ZM1045.19 172.649C1041.73 194.131 1021.48 208.698 1000 205.242C978.521 201.538 963.953 181.291 967.41 159.81C971.114 138.329 991.36 123.761 1012.84 127.218C1034.32 130.921 1048.64 151.168 1045.19 172.649ZM1117.04 273.389C1095.56 269.685 1075.31 284.253 1071.61 305.734C1068.15 327.216 1082.72 347.462 1104.2 351.166C1125.68 354.623 1145.93 340.055 1149.63 318.574C1153.09 297.092 1138.52 276.846 1117.04 273.389ZM916.299 87.7121L914.818 85.9837L913.337 84.2554L911.608 82.7739L909.88 81.2924L908.151 79.8109L906.423 78.3295L904.695 77.095L902.966 75.8604L901.238 74.6259L899.263 73.6382L897.287 72.6505L895.312 71.6629L893.337 70.6753L891.362 69.9345L889.386 69.1938L887.411 68.4531L885.436 67.7123L883.46 67.2185L881.485 66.7247L879.51 66.2308L877.534 65.984C876.3 65.7371 874.818 65.4901 873.584 65.4901C872.102 65.2432 870.868 65.2432 869.386 65.2432C867.905 65.2432 866.67 65.2432 865.189 65.2432C863.954 65.2432 862.473 65.4901 861.238 65.4901L859.263 65.7371L857.288 65.984L855.312 66.2308L853.337 66.7247L851.362 67.2185L849.387 67.7123C847.411 68.4531 845.436 68.9469 843.461 69.6877C842.226 70.1815 840.992 70.6753 839.757 71.416L837.782 72.4036L836.053 73.3913L834.325 74.3789L832.103 75.3666L830.375 76.6011L828.646 77.8357L826.918 79.0702L825.436 80.3048L823.955 81.7863L822.473 83.2677L820.992 84.7491L819.51 86.2306L818.029 87.959L816.794 89.6874L815.56 91.4158L814.325 93.1442L813.091 95.1194L812.103 97.0947L811.115 99.07L810.128 101.045L809.14 103.021L808.153 105.243L807.659 105.983L807.165 106.971L806.671 107.959L806.177 108.946L805.93 109.934L805.437 110.922L805.19 111.909L804.943 112.897L804.696 113.885L804.202 114.872L803.955 115.86L803.461 116.848L803.214 117.835L802.474 120.057L802.227 121.045L801.733 122.033L801.486 123.267L801.239 124.255L800.992 125.489L800.251 127.712L799.511 129.934L799.017 130.921L798.77 132.156L798.523 133.391L797.782 135.613L797.288 136.6L796.548 138.576L796.054 139.81L795.313 141.786L794.326 144.008L793.832 144.995L793.338 145.983L791.857 148.946L790.869 150.921L790.375 151.909L789.387 153.884L788.894 154.872L788.4 155.613L787.906 156.6L787.412 157.341C786.671 158.329 786.178 159.069 785.437 159.81C784.696 160.551 784.202 161.292 783.461 162.279C781.98 164.008 780.005 165.489 778.029 166.97C776.054 168.452 774.079 169.686 771.857 170.674C770.869 171.168 769.881 171.415 768.894 171.909C767.906 172.403 766.919 172.649 765.931 172.896L764.943 173.143L763.956 173.39L762.968 173.637L761.98 173.884L759.758 174.378L758.77 174.625L756.548 174.872L753.091 175.365L751.857 175.612L750.869 175.859L748.647 176.106H746.425H745.19H742.968H741.734H739.264H738.03H736.795H735.561H733.339H731.116H729.882H728.894H727.66H726.425H725.437H723.215H722.228H720.993H720.005H718.771H717.783H716.796H715.808L714.82 176.353H713.833H712.845H711.857H710.87H709.882L707.66 176.6L705.438 176.847L703.215 177.094L700.993 177.588L698.771 178.081L696.549 178.575L694.574 179.316L692.598 180.057L690.623 180.797L688.648 181.538L686.672 182.279L684.697 183.267L682.969 184.254L681.24 185.242L679.512 186.23L677.784 187.464L676.055 188.699L674.327 189.933L672.845 191.168L671.364 192.402L669.883 193.884L668.401 195.365C667.413 196.353 666.426 197.34 665.438 198.328C664.204 199.81 662.969 201.538 661.488 203.266L660.253 204.995L659.265 206.723L658.278 208.452L657.29 210.18L656.302 212.155L655.315 213.883C654.821 215.118 654.327 216.353 653.833 217.587C653.339 218.822 652.846 220.303 652.352 221.538C651.858 222.772 651.611 224.007 651.364 225.488C651.117 226.723 650.623 228.204 650.623 229.439L650.377 231.414L650.13 233.636L649.883 235.612V237.587V239.809V242.031V244.007L650.13 246.229L650.377 248.204L650.623 250.179L650.87 252.155L651.364 254.377L651.858 256.599L652.599 258.574L653.34 260.55L654.08 262.525L655.068 264.747L656.056 266.722L657.043 268.698L658.278 270.673L659.512 272.648L660.747 274.624L664.944 280.549L666.426 282.525L667.907 284.253L669.389 285.981L671.117 287.463L672.845 288.944L674.574 290.426L676.302 291.907L678.031 293.142L679.759 294.376L681.487 295.611L683.463 296.599L685.438 297.586L687.413 298.574L689.388 299.562L691.364 300.302L693.339 301.043L695.314 301.784L697.29 302.524L699.265 303.018L701.24 303.512L703.215 303.759L705.191 304.006C706.425 304.253 707.907 304.5 709.141 304.5C710.376 304.5 711.857 304.747 713.339 304.747C714.82 304.747 716.055 304.747 717.536 304.747C718.771 304.747 720.252 304.5 721.487 304.5L723.462 304.253L725.437 304.006L727.413 303.759L729.388 303.265L731.363 302.771L733.339 302.278C735.314 301.784 737.289 301.043 739.264 300.302C740.499 299.808 741.734 299.315 742.968 298.574L744.943 297.586L746.672 296.599L748.4 295.611L750.128 294.623L755.067 290.92L756.795 289.685L758.277 288.204L759.758 286.722L761.24 285.241L762.721 283.759L764.202 282.031L765.437 280.302L766.672 278.574L767.906 276.846L769.141 275.117L770.128 273.142L771.116 271.167L772.104 269.192L773.091 267.216L773.832 265.241L774.326 264.5L774.82 263.513L775.313 262.525L775.807 261.537L776.054 260.55L776.548 259.562L776.795 258.574L777.042 257.587L777.289 256.599L777.783 255.611L778.029 254.624L778.523 253.636L778.77 252.648L779.511 250.673L779.758 249.439L780.005 248.204L780.499 247.216L780.745 246.229L780.992 244.994L781.733 242.772L782.474 240.55L782.968 239.562L783.708 237.34L784.449 235.118L784.696 233.883L785.437 231.908L785.931 230.673L786.671 228.698L787.659 226.476L788.153 225.488L788.647 224.501L790.128 221.538L791.116 219.563C794.819 213.143 799.264 207.711 804.449 203.513C810.128 200.057 816.548 197.587 823.955 196.106L826.177 195.859L829.634 195.365L830.868 195.118H832.103L834.325 194.871H836.547H837.782H840.004H841.239H843.708H845.93H847.164H849.387H851.609H852.843H853.831H855.066H856.3H857.535H859.757H860.745H861.979H862.967H864.201H865.189H866.177H867.164L868.152 194.624H869.14H870.127H871.115H872.102L873.09 194.378H875.312L877.534 194.131L879.757 193.884L881.979 193.39L884.201 192.896L886.423 192.402L888.645 191.908L890.621 191.168L892.596 190.427L894.571 189.686L896.547 188.946L898.522 187.958L900.25 186.97L901.979 185.983L903.707 184.748L908.645 181.044L910.127 179.81L911.608 178.575L913.09 177.094L914.571 175.612C915.559 174.625 916.546 173.637 917.534 172.649C918.769 171.168 920.003 169.44 921.238 167.711L922.472 165.983L923.46 164.254L924.448 162.526L925.435 160.798L926.423 158.822L927.41 157.094C927.904 155.859 928.398 154.625 928.892 153.39C929.386 152.156 929.88 150.674 930.373 149.44C930.867 148.205 931.114 146.724 931.361 145.489C931.608 144.255 932.102 142.773 932.102 141.539L932.349 139.563L932.596 137.588L932.842 135.613L933.089 133.638V131.415V129.193V127.218L932.842 124.996L932.596 122.773L932.349 120.798L932.102 118.823L931.608 116.601L931.114 114.378L930.373 112.403L929.633 110.428L928.892 108.453L927.904 106.23L926.917 104.255L925.929 102.28L924.694 100.305L923.46 98.3293L922.225 96.354L918.028 90.4281L916.299 87.7121ZM777.289 119.564C773.832 141.045 753.585 155.613 732.104 152.156C710.623 148.452 696.055 128.206 699.512 106.724C703.215 85.243 723.462 70.6753 744.943 74.132C766.425 77.8357 780.992 98.0823 777.289 119.564ZM849.387 220.056C827.905 216.353 807.659 230.92 803.955 252.402C800.498 273.883 815.066 294.129 836.547 297.833C858.029 301.29 878.275 286.722 881.979 265.241C885.436 244.007 870.868 223.513 849.387 220.056ZM648.401 34.3794L646.92 32.651L645.438 30.9226L643.71 29.4412L641.982 27.9597L640.253 26.4783L638.525 24.9968L637.043 23.5153L635.315 22.2808L633.587 21.0462L631.611 20.0586L629.636 19.071L627.661 18.0833L625.685 17.0956L623.71 16.3549L621.735 15.6141L619.76 14.8734L617.784 14.1327L615.809 13.6389L613.834 13.145L611.858 12.6512L609.883 12.4043C608.649 12.1574 607.167 11.9105 605.933 11.9105C604.451 11.6636 603.217 11.6636 601.735 11.6636C600.254 11.6636 599.019 11.6636 597.538 11.6636C596.303 11.6636 594.822 11.9105 593.587 11.9105L591.612 12.1574L589.637 12.4043L587.661 12.6512L585.686 13.145L583.711 13.6389L581.735 14.1327C579.76 14.8735 577.785 15.3672 575.81 16.108C574.575 16.6018 573.34 17.0957 572.106 17.8364L570.131 18.824L568.402 19.8116L566.674 20.7993L564.945 21.7869L563.217 23.0215L561.489 24.256L559.76 25.4906L558.279 26.7251L556.797 28.2066L555.316 29.6881L553.834 31.1696L552.353 32.651L550.872 34.3794L549.637 36.1078L548.402 37.8361L547.168 39.5645L545.933 41.5398L544.946 43.5151L543.958 45.4904L542.97 47.4657L541.983 49.4409L540.995 51.6631L540.501 52.4039L540.008 53.3915L539.514 54.3792L539.02 55.3668L538.773 56.3544L538.279 57.3421L538.032 58.3297L537.785 59.3174L537.538 60.305L537.045 61.2926L536.798 62.2803L536.304 63.2679L536.057 64.2556L535.316 66.4778L535.069 67.4654L534.575 68.4531L534.328 69.6877L534.082 70.6753L533.835 71.9098L533.094 74.132L532.353 76.3542L531.859 77.3418L531.612 78.5764L531.366 79.8109L530.625 82.0332L530.131 83.0208L529.39 84.9961L528.897 86.2306L528.156 88.206L527.168 90.4281L526.674 91.4158L526.18 92.4034L524.699 95.3664L523.711 97.3416L523.218 98.3293L522.23 100.305L521.736 101.292L521.242 102.033L520.748 103.021L520.255 103.761C519.514 104.749 519.02 105.49 518.279 106.23C517.539 106.971 517.045 107.712 516.304 108.7C514.823 110.428 512.847 111.909 510.872 113.391C508.897 114.872 506.921 116.107 504.699 117.094C503.712 117.588 502.724 117.835 501.736 118.329C500.749 118.823 499.761 119.07 498.773 119.317L497.786 119.564L496.798 119.811H493.835L492.848 120.057L490.625 120.551L489.638 120.798L487.415 121.045L483.959 121.539L482.724 121.786L481.737 122.033L479.514 122.28H477.292H476.058H473.835H472.601H470.132H468.897H467.663H466.428H464.206H461.984H460.749H459.761H458.527H457.292H456.305H454.083H453.095H451.86H450.873H449.638H448.65H447.663H446.675L445.688 122.527H444.7H443.712H442.725H441.737H440.749L438.527 122.773L436.305 123.02L434.083 123.267L431.861 123.761L429.638 124.255L427.416 124.749L425.441 125.489L423.466 126.23L421.49 126.971L419.515 127.712L417.54 128.452L415.564 129.44L413.836 130.428L412.108 131.415L410.379 132.403L408.651 133.638L406.923 134.872L405.194 136.107L403.713 137.341L402.231 138.576L400.75 140.057L399.268 141.539C398.281 142.526 397.293 143.514 396.305 144.502C395.071 145.983 393.836 147.711 392.355 149.44L391.12 151.168L390.133 152.897L389.145 154.625L388.157 156.353L387.17 158.329L386.182 160.057C385.688 161.291 385.194 162.526 384.701 163.761C384.207 164.995 383.713 166.477 383.219 167.711C382.725 168.946 382.478 170.18 382.232 171.662C381.985 172.896 381.491 174.378 381.491 175.612L381.244 177.588L380.997 179.81L380.75 181.785V183.76V185.983V188.205V190.18L380.997 192.402L381.244 194.378L381.491 196.353L381.738 198.328L382.232 200.55L382.725 202.772L383.466 204.748L384.207 206.723L384.948 208.698L385.935 210.921L386.923 212.896L387.91 214.871L389.145 216.846L390.38 218.822L391.614 220.797L395.812 226.723L397.293 228.698L398.775 230.427L400.256 232.155L401.984 233.636L403.713 235.118L405.441 236.599L407.169 238.081L408.898 239.315L410.626 240.55L412.355 241.784L414.33 242.772L416.305 243.76L418.28 244.747L420.256 245.735L422.231 246.476L424.206 247.216L426.182 247.957L428.157 248.698L430.132 249.192L432.107 249.686L434.083 249.932L436.058 250.179C437.293 250.426 438.774 250.673 440.009 250.673C441.243 250.673 442.725 250.92 444.206 250.92C445.688 250.92 446.922 250.92 448.404 250.92C449.638 250.92 451.12 250.673 452.354 250.673L454.329 250.426L456.305 250.179L458.28 249.932L460.255 249.439L462.231 248.945L464.206 248.451C466.181 247.957 468.156 247.216 470.132 246.476C471.366 245.982 472.601 245.488 473.835 244.747L475.811 243.76L477.539 242.772L479.267 241.784L480.996 240.797L485.934 237.093L487.662 235.859L489.144 234.377L490.625 232.896L492.107 231.414L493.588 229.933L495.07 228.204L496.304 226.476L497.539 224.748L498.773 223.019L500.008 221.291L500.996 219.316L501.983 217.34L502.971 215.365L503.959 213.39L504.699 211.414L505.193 210.674L505.687 209.686L506.181 208.698L506.675 207.711L506.921 206.723L507.415 205.735L507.662 204.748L507.909 203.76L508.156 202.772L508.65 201.785L508.897 200.797L509.391 199.81L509.637 198.822L510.378 196.847L510.625 195.612L510.872 194.378L511.366 193.39L511.613 192.402L511.86 191.168L512.6 188.946L513.341 186.723L513.835 185.736L514.576 183.513L515.316 181.291L515.563 180.057L516.304 178.081L516.798 176.847L517.539 174.872L518.526 172.649L519.02 171.662L519.514 170.674L520.995 167.711L521.983 165.736C525.687 159.316 530.131 153.884 535.316 149.687C540.995 146.23 547.415 143.761 554.822 142.279L557.044 142.032L560.501 141.539L561.736 141.292H562.97L565.192 141.045H567.415H568.649H570.871H572.106H574.575H576.797H578.032H580.254H582.476H583.711H584.698H585.933H587.167H588.402H590.624H591.612H592.846H593.834H595.069H596.056H597.044H598.032L599.019 140.798H600.007H600.994H601.982H602.97L603.957 140.551H606.18L608.402 140.304L610.624 140.057L612.846 139.563L615.068 139.07L617.291 138.576L619.513 138.082L621.488 137.341L623.463 136.6L625.439 135.86L627.414 135.119L629.389 134.131L631.118 133.144L632.846 132.156L634.574 130.921L639.513 127.218L640.994 125.983L642.475 124.749L643.957 123.267L645.438 121.786C646.426 120.798 647.414 119.811 648.401 118.823C649.636 117.341 650.87 115.613 652.105 113.885L653.34 112.156L654.327 110.428L655.315 108.7L656.302 106.971L657.29 104.996L658.278 103.267C658.772 102.033 659.265 100.798 659.759 99.5638C660.253 98.3293 660.747 96.8478 661.241 95.6133C661.734 94.3787 661.981 92.8972 662.228 91.6627C662.475 90.4281 662.969 88.9467 662.969 87.7121L663.216 85.7368L663.463 83.7615L663.71 81.7863L663.957 79.8109V77.5887V75.3666V73.3913L663.71 71.1691L663.463 68.9469L663.216 66.9716L662.969 64.9963L662.475 62.7741L661.981 60.5519L661.241 58.5767L660.5 56.6013L659.759 54.6261L658.772 52.4039L657.784 50.4286L656.796 48.4533L655.562 46.478L654.327 44.5027L653.093 42.5275L648.895 36.6016L648.401 34.3794ZM509.637 66.2308C506.181 87.7121 485.934 102.28 464.453 98.8231C442.972 95.1194 428.404 74.8728 431.861 53.3915C435.564 31.9103 455.811 17.3425 477.292 20.7993C498.773 24.5029 513.094 44.7496 509.637 66.2308ZM581.488 166.97C560.007 163.267 539.761 177.835 536.057 199.316C532.6 220.797 547.168 241.044 568.649 244.747C590.13 248.204 610.377 233.636 614.081 212.155C617.537 190.674 602.97 170.427 581.488 166.97ZM380.75 -18.7065L379.269 -20.4348L377.787 -22.1632L376.059 -23.6447L374.33 -25.1261L372.602 -26.6075L370.874 -28.089L369.145 -29.3236L367.417 -30.5581L365.689 -31.7927L363.713 -32.7803L361.738 -33.768L359.763 -34.7556L357.787 -35.7433L355.812 -36.484L353.837 -37.2247L351.861 -37.9655L349.886 -38.7062L347.911 -39.2L345.936 -39.6939L343.96 -40.1876L341.985 -40.4346C340.75 -40.6815 339.269 -40.9284 338.034 -40.9284C336.553 -41.1753 335.318 -41.1753 333.837 -41.1753C332.356 -41.1753 331.121 -41.1753 329.639 -41.1753C328.405 -41.1753 326.923 -40.9284 325.689 -40.9284L323.714 -40.6815L321.738 -40.4346L319.763 -40.1876L317.788 -39.6939L315.812 -39.2L313.837 -38.7062C311.862 -37.9655 309.887 -37.4716 307.911 -36.7309C306.677 -36.2371 305.442 -35.7433 304.208 -35.0026L302.232 -34.0149L300.504 -33.0272L298.776 -32.0396L297.047 -31.052L295.319 -29.8174L293.591 -28.5829L291.862 -27.3483L290.381 -26.1138L288.899 -24.6323L287.418 -23.1508L285.936 -21.6693L284.455 -20.1879L282.973 -18.4595L281.739 -16.7311L280.504 -15.0028L279.27 -13.2744L278.035 -11.2991L277.048 -9.32379L276.06 -7.34854L275.072 -5.37328L274.085 -3.39795L273.097 -1.17577L272.603 -0.435059L272.109 0.552643L271.615 1.54025L271.122 2.52789L270.875 3.51553L270.381 4.50314L270.134 5.49084L269.887 6.47849L269.64 7.46613L269.146 8.45374L268.899 9.44138L268.406 10.4291L268.159 11.4167L267.418 13.6389L267.171 14.6265L266.677 15.6141L266.43 16.8487L266.183 17.8364L265.937 19.071L265.196 21.2931L264.455 23.5153L263.961 24.5029L263.714 25.7375L263.467 26.972L262.727 29.1942L262.233 30.1819L261.492 32.1572L260.998 33.3918L260.258 35.367L259.27 37.5893L258.776 38.5769L258.282 39.5645L256.801 42.5275L255.813 44.5027L255.319 45.4904L254.332 47.4657L253.838 48.4533L253.344 49.194L252.85 50.1816L252.356 50.9224C251.616 51.9101 251.122 52.6508 250.381 53.3915C249.64 54.1323 249.147 54.873 248.406 55.8606C246.924 57.589 244.949 59.0705 242.974 60.5519C240.999 62.0334 239.023 63.2679 236.801 64.2556C235.813 64.7494 234.826 64.9963 233.838 65.4901C232.85 65.9839 231.863 66.2309 230.875 66.4778L229.888 66.7247L228.9 66.9716L227.912 67.2185L226.925 67.4654L224.702 67.9593L223.715 68.2062L221.493 68.4531L218.036 68.9469L216.801 69.1938L215.814 69.4407L213.591 69.6877H211.369H210.135H207.912H206.678H204.209H202.974H201.74H200.505H198.283H196.061H194.826H193.839H192.604H191.369H190.382H188.16H187.172H185.937H184.95H183.715H182.728H181.74H180.752L179.765 69.9345H178.777H177.789H176.802H175.814H174.826L172.604 70.1814L170.382 70.4283L168.16 70.6753L165.938 71.1691L163.715 71.6629L161.493 72.1568L159.518 72.8975H155.567L153.592 73.6382L151.617 74.3789L149.642 75.1197L147.666 76.1073L145.938 77.095L144.21 78.0826L142.481 79.0702L140.753 80.3048L139.024 81.5393L137.296 82.7739L135.815 84.0085L134.333 85.243L132.852 86.7245L131.37 88.206C130.383 89.1936 129.395 90.1812 128.407 91.1689C127.173 92.6503 125.938 94.3787 124.457 96.1071L123.222 97.8355L122.234 99.5638L121.247 101.292L120.259 103.021L119.272 104.996L118.284 106.724C117.79 107.959 117.296 109.193 116.802 110.428C116.309 111.662 115.815 113.144 115.321 114.378C114.827 115.613 114.58 116.848 114.333 118.329C114.086 119.564 113.593 121.045 113.593 122.28L113.346 124.255L113.099 126.477L112.852 128.452V130.428V132.65V134.872V136.847L113.099 139.07L113.346 141.045L113.593 143.02L113.839 144.995L114.333 147.218L114.827 149.44L115.568 151.415L116.309 153.39L117.049 155.366L118.037 157.588L119.025 159.563L120.012 161.538L121.247 163.514L122.481 165.489L123.716 167.464L127.913 173.39L129.395 175.365L130.876 177.094L132.358 178.822L134.086 180.304L135.815 181.785L137.543 183.267L139.271 184.748L141 185.983L142.728 187.217L144.456 188.452L146.432 189.439L148.407 190.427L150.382 191.415L152.358 192.402L154.333 193.143L156.308 193.884L158.283 194.624L160.259 195.365L162.234 195.859L164.209 196.353L166.185 196.6L168.16 196.847C169.394 197.094 170.876 197.341 172.11 197.341C173.345 197.341 174.826 197.587 176.308 197.587C177.789 197.587 179.024 197.587 180.505 197.587C181.74 197.587 183.221 197.341 184.456 197.341L186.431 197.094L188.407 196.847L190.382 196.6L192.357 196.106L194.332 195.612L196.308 195.118C198.283 194.624 200.258 193.884 202.234 193.143C203.468 192.649 204.703 192.155 205.937 191.415L207.912 190.427L209.641 189.439L211.369 188.452L213.098 187.464L218.036 183.76L219.764 182.526L221.246 181.044L222.727 179.563L224.209 178.081L225.69 176.6L227.172 174.872L228.406 173.143L229.641 171.415L230.875 169.687L232.11 167.958L233.097 165.983L234.085 164.008L235.073 162.032L236.06 160.057L236.801 158.082L237.295 157.341L237.789 156.353L238.283 155.366L238.776 154.378L239.023 153.39L239.517 152.403L239.764 151.415L240.011 150.427L240.258 149.44L240.752 148.452L240.999 147.465L241.492 146.477L241.739 145.489L242.48 143.514L242.727 142.279L242.974 141.045L243.468 140.057L243.715 139.07L243.961 137.835L244.702 135.613L245.443 133.391L245.937 132.403L246.677 130.181L247.418 127.959L247.665 126.724L248.406 124.749L248.9 123.514L249.64 121.539L250.628 119.317L251.122 118.329L251.616 117.341L253.097 114.378L254.085 112.403C257.788 105.984 262.233 100.551 267.418 96.354C273.097 92.8972 279.517 90.4281 286.924 88.9467L289.146 88.6997L292.603 88.206L293.837 87.959H295.072L297.294 87.7121H299.516H300.751H302.973H304.208H306.677H308.899H310.134H312.356H314.578H315.812H316.8H318.035H319.269H320.504H322.726H323.714H324.948H325.936H327.17H328.158H329.146H330.133L331.121 87.4652H332.109H333.096H334.084H335.072L336.059 87.2183H338.281L340.504 86.9714L342.726 86.7245L344.948 86.2306L347.17 85.7368L349.392 85.243L351.615 84.7491L353.59 84.0085L355.565 83.2677L357.54 82.527L359.516 81.7863L361.491 80.7986L363.219 79.8109L364.948 78.8233L366.676 77.5887L371.614 73.8851L373.096 72.6505L374.577 71.416L376.059 69.9345L377.54 68.4531C378.528 67.4655 379.516 66.4778 380.503 65.4901C381.738 64.0087 382.972 62.2803 384.207 60.5519L385.441 58.8235L386.429 57.0952L387.417 55.3668L388.404 53.6385L389.392 51.6631L390.38 49.9348C390.873 48.7002 391.367 47.4657 391.861 46.2311C392.355 44.9966 392.849 43.5151 393.342 42.2805C393.836 41.046 394.083 39.5645 394.33 38.33C394.577 37.0954 395.071 35.6139 395.071 34.3794L395.318 32.4041L395.565 30.4288L395.812 28.4535L396.059 26.4783V24.256V22.0338V20.0586L395.812 17.8364L395.565 15.6141L395.318 13.6389L395.071 11.6636L394.577 9.44138L394.083 7.21918L393.342 5.24393L392.602 3.26859L391.861 1.29333L390.873 -0.928833L389.886 -2.90417L388.898 -4.87943L387.664 -6.85469L386.429 -8.83002L385.194 -10.8053L380.997 -16.7311L380.75 -18.7065ZM241.739 12.8982C238.283 34.3794 218.036 48.9471 196.555 45.4904C175.073 41.7867 160.506 21.54 163.962 0.0587921C167.666 -21.4225 187.913 -35.9902 209.394 -32.5335C230.875 -28.8298 245.443 -8.58305 241.739 12.8982ZM313.837 113.638C292.356 109.934 272.109 124.502 268.406 145.983C264.949 167.464 279.517 187.711 300.998 191.415C322.479 194.871 342.726 180.304 346.429 158.822C349.886 137.341 335.318 117.094 313.837 113.638ZM45.939 60.305C24.4578 56.6013 4.21112 71.1691 0.507462 92.6503C-2.94929 114.132 11.6184 134.378 33.0997 138.082C54.5809 141.539 74.8276 126.971 78.5313 105.49C81.988 84.2554 67.4203 63.7617 45.939 60.305ZM1183.95 -125.866L1182.47 -127.594L1180.99 -129.322L1179.26 -130.804L1177.53 -132.285L1175.8 -133.767L1174.07 -135.248L1172.35 -136.483L1170.62 -137.717L1168.89 -138.952L1166.91 -139.94L1164.94 -140.927L1162.96 -141.915L1160.99 -142.903L1159.01 -143.643L1157.04 -144.384L1155.06 -145.125L1153.09 -145.865L1151.11 -146.359L1149.14 -146.853L1147.16 -147.347L1145.19 -147.594C1143.95 -147.841 1142.47 -148.088 1141.24 -148.088C1139.75 -148.335 1138.52 -148.335 1137.04 -148.335C1135.56 -148.335 1134.32 -148.335 1132.84 -148.335C1131.61 -148.335 1130.12 -148.088 1128.89 -148.088L1126.91 -147.841L1124.94 -147.594L1122.96 -147.347L1120.99 -146.853L1119.01 -146.359L1117.04 -145.865C1115.06 -145.125 1113.09 -144.631 1111.11 -143.89C1109.88 -143.396 1108.64 -142.903 1107.41 -142.162L1105.43 -141.174L1103.7 -140.186L1101.98 -139.199L1100.25 -138.211L1098.52 -136.977L1096.79 -135.742L1095.06 -134.508L1093.58 -133.273L1092.1 -131.792L1090.62 -130.31L1089.14 -128.829L1087.66 -127.347L1086.17 -125.619L1084.94 -123.89L1083.7 -122.162L1082.47 -120.434L1081.24 -118.458L1080.25 -116.483L1079.26 -114.508L1078.27 -112.533L1077.29 -110.557L1076.3 -108.335L1075.8 -107.594L1075.31 -106.607L1074.82 -105.619L1074.32 -104.631L1074.08 -103.644L1073.58 -102.656L1073.33 -101.668L1073.09 -100.681L1072.84 -99.6931L1072.35 -98.7055L1072.1 -97.7179L1071.61 -96.7303L1071.36 -95.7426L1070.62 -93.5204L1070.37 -92.5327L1069.88 -91.5451L1069.63 -90.3106L1069.38 -89.3229L1069.14 -88.0884L1068.4 -85.8661L1067.66 -83.644L1067.16 -82.6563L1066.92 -81.4218L1066.67 -80.1872L1065.93 -77.965L1064.2 -77.7181L1063.46 -75.7428L1062.96 -74.5083L1062.22 -72.533L1061.24 -70.3108L1060.74 -69.3232L1060.25 -68.3355L1058.77 -65.3726L1057.78 -63.3973L1057.29 -62.4096L1056.3 -60.4344L1055.8 -59.4467L1055.31 -58.7059L1054.82 -57.7183L1054.32 -56.9776C1053.58 -55.99 1053.09 -55.2492 1052.35 -54.5085C1051.61 -53.7678 1051.11 -53.027 1050.37 -52.0394C1048.89 -50.311 1046.92 -48.8296 1044.94 -47.3481C1042.96 -45.8666 1040.99 -44.6321 1038.77 -43.6445C1037.78 -43.1506 1036.79 -42.9037 1035.8 -42.4099C1034.82 -41.9161 1033.83 -41.6691 1032.84 -41.4222L1031.85 -41.1753L1030.87 -40.9284L1029.88 -40.6815L1028.89 -40.4346L1026.67 -39.9408L1025.68 -39.6939L1023.46 -39.4469L1020 -38.9531L1018.77 -38.7062L1017.78 -38.4593L1015.56 -38.2124H1013.34H1012.1H1009.88H1008.64H1006.17H1004.94H1003.71H1002.47H1000.25H998.027H996.792H995.805H994.57H993.336H992.348H990.126H989.138H987.904H986.916H985.681H984.694H983.706H982.718L981.731 -37.9655H980.743H979.755H978.768H977.78H976.793L974.57 -37.7185L972.348 -37.4717L970.126 -37.2247L967.904 -36.7309L965.682 -36.2371L963.459 -35.7433L961.484 -35.0026L959.509 -34.2618L957.534 -33.5211L955.558 -32.7803L953.583 -32.0396L951.608 -31.052L949.879 -30.0644L948.151 -29.0766L946.423 -28.089L944.694 -26.8545L942.966 -25.6199L941.237 -24.3854L939.756 -23.1508L938.275 -21.9163L936.793 -20.4348L935.312 -18.9534C934.324 -17.9657 933.336 -16.9781 932.349 -15.9904C931.114 -14.5089 929.88 -12.7806 928.398 -11.0522L927.164 -9.32379L926.176 -7.59546L925.188 -5.86705L924.201 -4.13873L923.213 -2.16339L922.225 -0.435059C921.732 0.799484 921.238 2.03406 920.744 3.26859C920.25 4.50314 919.756 5.98462 919.262 7.21918C918.769 8.45374 918.522 9.68829 918.275 11.1698C918.028 12.4043 917.534 13.8858 917.534 15.1204L917.287 17.0956L917.04 19.3178L916.793 21.2931V23.2684V25.4906V27.7128V29.6881L917.04 31.9102L917.287 33.8856L917.534 35.8608L917.781 37.8361L918.275 40.0583L918.769 42.2805L919.509 44.2558L920.25 46.2311L920.991 48.2064L921.978 50.4286L922.966 52.4039L923.954 54.3792L925.188 56.3544L926.423 58.3297L927.657 60.305L931.855 66.2308L933.336 68.2062L934.818 69.9345L936.299 71.6629L938.028 73.1444L939.756 74.6259L941.484 76.1073L943.213 77.5887L944.941 78.8233L946.669 80.0579L948.398 81.2924L950.373 82.28L952.349 83.2677L954.324 84.2554L956.299 85.243L958.274 85.9837L960.25 86.7245L962.225 87.4652L964.2 88.206L966.175 88.6997L968.151 89.1936L970.126 89.4405L972.101 89.6874C973.336 89.9343 974.817 90.1812 976.052 90.1812C977.286 90.1812 978.768 90.4281 980.249 90.4281C981.731 90.4281 982.965 90.4281 984.447 90.4281C985.681 90.4281 987.163 90.1812 988.397 90.1812L990.373 89.9343L992.348 89.6874L994.323 89.4405L996.299 88.9467L998.274 88.4528L1000.25 87.959C1002.22 87.4652 1004.2 86.7244 1006.17 85.9837C1007.41 85.4899 1008.64 84.9961 1009.88 84.2554L1011.85 83.2677L1013.58 82.28L1015.31 81.2924L1017.04 80.3048L1021.98 76.6011L1023.71 75.3666L1025.19 73.8851L1026.67 72.4036L1028.15 70.9222L1029.63 69.4407L1031.11 67.7123L1032.35 65.984L1033.58 64.2556L1034.82 62.5272L1036.05 60.7989L1037.04 58.8235L1038.03 56.8483L1039.01 54.873L1040 52.8977L1040.74 50.9224L1041.24 50.1816L1041.73 49.194L1042.22 48.2064L1042.72 47.2188L1042.96 46.2311L1043.46 45.2434L1043.71 44.2558L1043.95 43.2682L1044.2 42.2805L1044.69 41.2929L1044.94 40.3052L1045.43 39.3176L1045.68 38.33L1046.42 36.3547L1046.67 35.1201L1046.92 33.8856L1047.41 32.8979L1047.66 31.9102L1047.9 30.6757L1048.64 28.4535L1049.38 26.2314L1049.88 25.2437L1050.62 23.0215L1051.36 20.7993L1051.61 19.5647L1052.35 17.5895L1052.84 16.3549L1053.58 14.3796L1054.57 12.1574L1055.06 11.1698L1055.56 10.1821L1057.04 7.21918L1058.03 5.24393C1061.73 -1.17575 1066.17 -6.60779 1071.36 -10.8053C1077.04 -14.262 1083.46 -16.7311 1090.87 -18.2126L1093.09 -18.4595L1096.54 -18.9534L1097.78 -19.2002H1099.01L1101.24 -19.4471H1103.46H1104.69H1106.91H1108.15H1110.62H1112.84H1114.08H1116.3H1118.52H1119.75H1120.74H1121.98H1123.21H1124.45H1126.67H1127.66H1128.89H1129.88H1131.11H1132.1H1133.09H1134.07L1135.06 -19.6941H1136.05H1137.04H1138.03H1139.01L1140 -19.941H1142.22L1144.45 -20.1879L1146.67 -20.4348L1148.89 -20.9286L1151.11 -21.4225L1153.33 -21.9163L1155.56 -22.4101L1157.53 -23.1508L1159.51 -23.8916L1161.48 -24.6323L1163.46 -25.373L1165.43 -26.3607L1167.16 -27.3483L1168.89 -28.336L1170.62 -29.5705L1175.56 -33.2742L1177.04 -34.5087L1178.52 -35.7433L1180 -37.2247L1181.48 -38.7062C1182.47 -39.6939 1183.46 -40.6815 1184.44 -41.6691C1185.68 -43.1506 1186.91 -44.879 1188.15 -46.6073L1189.38 -48.3357L1190.37 -50.0641L1191.36 -51.7925L1192.35 -53.5209L1193.33 -55.4961L1194.32 -57.2245C1194.81 -58.4591 1195.31 -59.6936 1195.8 -60.9282C1196.3 -62.1628 1196.79 -63.6442 1197.28 -64.8787C1197.78 -66.1133 1198.02 -67.5947 1198.27 -68.8293C1198.52 -70.0639 1199.01 -71.5453 1199.01 -72.7799L1199.26 -74.7551L1199.51 -76.7305L1199.75 -78.7057L1200 -80.6811V-82.9032V-85.1254V-87.1007L1199.75 -89.3229L1199.51 -91.5451L1199.26 -93.5204L1199.01 -95.4957L1198.52 -97.7179L1198.02 -99.9401L1197.28 -101.915L1196.54 -103.891L1195.8 -105.866L1194.81 -108.088L1193.83 -110.063L1192.84 -112.039L1191.6 -114.014L1190.37 -115.989L1189.14 -117.965L1184.94 -123.89L1183.95 -125.866ZM1045.19 -94.0142C1041.73 -72.533 1021.48 -57.9652 1000 -61.422C978.521 -65.1256 963.953 -85.3723 967.41 -106.854C971.114 -128.335 991.36 -142.903 1012.84 -139.446C1034.32 -135.742 1048.64 -115.495 1045.19 -94.0142ZM1117.04 6.7254C1095.56 3.02176 1075.31 17.5894 1071.61 39.0706C1068.15 60.5519 1082.72 80.7986 1104.2 84.5023C1125.68 87.959 1145.93 73.3913 1149.63 51.91C1153.09 30.4288 1138.52 10.1822 1117.04 6.7254ZM916.299 -178.952L914.818 -180.68L913.337 -182.408L911.608 -183.89L909.88 -185.371L908.151 -186.853L906.423 -188.334L904.695 -189.569L902.966 -190.803L901.238 -192.038L899.263 -193.025L897.287 -194.013L895.312 -195.001L893.337 -195.988L891.362 -196.729L889.386 -197.47L887.411 -198.211L885.436 -198.951L883.46 -199.445L881.485 -199.939L879.51 -200.433L877.534 -200.68C876.3 -200.927 874.818 -201.173 873.584 -201.173C872.102 -201.42 870.868 -201.42 869.386 -201.42C867.905 -201.42 866.67 -201.42 865.189 -201.42C863.954 -201.42 862.473 -201.173 861.238 -201.173L859.263 -200.927L857.288 -200.68L855.312 -200.433L853.337 -199.939L851.362 -199.445L849.387 -198.951C847.411 -198.211 845.436 -197.717 843.461 -196.976C842.226 -196.482 840.992 -195.988 839.757 -195.248L837.782 -194.26L836.053 -193.272L834.325 -192.285L832.103 -191.297L830.375 -190.062L828.646 -188.828L826.918 -187.593L825.436 -186.359L823.955 -184.877L822.473 -183.396L820.992 -181.914L819.51 -180.433L818.029 -178.705L816.794 -176.976L815.56 -175.248L814.325 -173.519L813.091 -171.544L812.103 -169.569L811.115 -167.594L810.128 -165.618L809.14 -163.643L808.153 -161.421L807.659 -160.68L807.165 -159.693L806.671 -158.705L806.177 -157.717L805.93 -156.73L805.437 -155.742L805.19 -154.754L804.943 -153.767L804.696 -152.779L804.202 -151.791L803.955 -150.804L803.461 -149.816L803.214 -148.828L802.474 -146.606L802.227 -145.619L801.733 -144.631L801.486 -143.396L801.239 -142.409L800.992 -141.174L800.251 -138.952L799.511 -136.73L799.017 -135.742L798.77 -134.508L798.523 -133.273L797.782 -131.051L797.288 -130.063L796.548 -128.088L796.054 -126.853L795.313 -124.878L794.326 -122.656L793.832 -121.668L793.338 -120.681L791.857 -117.718L790.869 -115.742L790.375 -114.755L789.387 -112.779L788.894 -111.792L788.4 -111.051L787.906 -110.063L787.412 -109.323C786.671 -108.335 786.178 -107.594 785.437 -106.854C784.696 -106.113 784.202 -105.372 783.461 -104.384C781.98 -102.656 780.005 -101.175 778.029 -99.6931C776.054 -98.2117 774.079 -96.9771 771.857 -95.9895C770.869 -95.4957 769.881 -95.2487 768.894 -94.7549C767.906 -94.2611 766.919 -94.0142 765.931 -93.7673L764.943 -93.5204L763.956 -93.2735L762.968 -93.0266L761.98 -92.7797L759.758 -92.2858L758.77 -92.0389L756.548 -91.7921L753.091 -91.2982L751.857 -91.0513L750.869 -90.8043L748.647 -90.5575H746.425H745.19H742.968H741.734H739.264H738.03H736.795H735.561H733.339H731.116H729.882H728.894H727.66H726.425H725.437H723.215H722.228H720.993H720.005H718.771H717.783H716.796H715.808L714.82 -90.3106H713.833H712.845H711.857H710.87H709.882L707.66 -90.0636L705.438 -89.8167L703.215 -89.5698L700.993 -89.076L698.771 -88.5822L696.549 -88.0884L694.574 -87.3476L692.598 -86.6069L690.623 -85.8661L688.648 -85.1254L686.672 -84.3847L684.697 -83.397L682.969 -82.4094L681.24 -81.4218L679.512 -80.4341L677.784 -79.1996L676.055 -77.965L674.327 -76.7305L672.845 -75.4959L671.364 -74.2614L669.883 -72.7799L668.401 -71.2984C667.413 -70.3108 666.426 -69.3232 665.438 -68.3355C664.204 -66.8541 662.969 -65.1257 661.488 -63.3973L660.253 -61.6689L659.265 -59.9405L658.278 -58.2122L657.29 -56.4838L656.302 -54.5085L655.315 -52.7801C654.821 -51.5455 654.327 -50.311 653.833 -49.0764C653.339 -47.8419 652.846 -46.3604 652.352 -45.1259C651.858 -43.8913 651.611 -42.6568 651.364 -41.1753C651.117 -39.9408 650.623 -38.4593 650.623 -37.2247L650.377 -35.2494L650.13 -33.0272L649.883 -31.052V-29.0766V-26.8545V-24.6323V-22.657L650.13 -20.4348L650.377 -18.4595L650.623 -16.4843L650.87 -14.5089L651.364 -12.2867L651.858 -10.0646L652.599 -8.08923L653.34 -6.11398L654.08 -4.13873L655.068 -1.91647L656.056 0.0587921L657.043 2.03406L658.278 4.00937L659.512 5.98462L660.747 7.95996L664.944 13.8858L666.426 15.8611L667.907 17.5895L669.389 19.3178L671.117 20.7993L672.845 22.2808L674.574 23.7622L676.302 25.2437L678.031 26.4783L679.759 27.7128L681.487 28.9474L683.463 29.935L685.438 30.9226L687.413 31.9102L689.388 32.8979L691.364 33.6387L693.339 34.3794L695.314 35.1201L697.29 35.8608L699.265 36.3547L701.24 36.8485L703.215 37.0954L705.191 37.3423C706.425 37.5892 707.907 37.8361 709.141 37.8361C710.376 37.8361 711.857 38.083 713.339 38.083C714.82 38.083 716.055 38.083 717.536 38.083C718.771 38.083 720.252 37.8361 721.487 37.8361L723.462 37.5893L725.437 37.3423L727.413 37.0954L729.388 36.6016L731.363 36.1078L733.339 35.6139C735.314 35.1201 737.289 34.3794 739.264 33.6387C740.499 33.1448 741.734 32.651 742.968 31.9102L744.943 30.9226L746.672 29.935L748.4 28.9474L750.128 27.9597L755.067 24.256L756.795 23.0215L758.277 21.54L759.758 20.0586L761.24 18.5771L762.721 17.0956L764.202 15.3673L765.437 13.6389L766.672 11.9105L767.906 10.1821L769.141 8.45374L770.128 6.47849L771.116 4.50314L772.104 2.52789L773.091 0.552643L773.832 -1.4227L774.326 -2.16339L774.82 -3.15102L775.313 -4.13873L775.807 -5.12636L776.054 -6.11398L776.548 -7.10161L776.795 -8.08923L777.042 -9.07693L777.289 -10.0646L777.783 -11.0522L778.029 -12.0398L778.523 -13.0275L778.77 -14.0152L779.511 -15.9904L779.758 -17.225L780.005 -18.4595L780.499 -19.4471L780.745 -20.4348L780.992 -21.6693L781.733 -23.8916L782.474 -26.1138L782.968 -27.1014L783.708 -29.3236L784.449 -31.5458L784.696 -32.7803L785.437 -34.7556L785.931 -35.9902L786.671 -37.9655L787.659 -40.1876L788.153 -41.1753L788.647 -42.163L790.128 -45.1259L791.116 -47.1012C794.819 -53.5209 799.264 -58.9529 804.449 -63.1504C810.128 -66.6071 816.548 -69.0762 823.955 -70.5577L826.177 -70.8046L829.634 -71.2984L830.868 -71.5453H832.103L834.325 -71.7923H836.547H837.782H840.004H841.239H843.708H845.93H847.164H849.387H851.609H852.843H853.831H855.066H856.3H857.535H859.757H860.745H861.979H862.967H864.201H865.189H866.177H867.164L868.152 -72.0392H869.14H870.127H871.115H872.102L873.09 -72.286H875.312L877.534 -72.533L879.757 -72.7799L881.979 -73.2737L884.201 -73.7675L886.423 -74.2614L888.645 -74.7551L890.621 -75.4959L892.596 -76.2366L894.571 -76.9774L896.547 -77.7181L898.522 -78.7057L900.25 -79.6934L901.979 -80.6811L903.707 -81.9156L908.645 -85.6193L910.127 -86.8538L911.608 -88.0884L913.09 -89.5698L914.571 -91.0513C915.559 -92.0389 916.546 -93.0266 917.534 -94.0142C918.769 -95.4957 920.003 -97.2241 921.238 -98.9524L922.472 -100.681L923.46 -102.409L924.448 -104.138L925.435 -105.866L926.423 -107.841L927.41 -109.57C927.904 -110.804 928.398 -112.039 928.892 -113.273C929.386 -114.508 929.88 -115.989 930.373 -117.224C930.867 -118.458 931.114 -119.94 931.361 -121.174C931.608 -122.409 932.102 -123.89 932.102 -125.125L932.349 -127.1L932.596 -129.076L932.842 -131.051L933.089 -133.026V-135.248V-137.471V-139.446L932.842 -141.668L932.596 -143.89L932.349 -145.865L932.102 -147.841L931.608 -150.063L931.114 -152.285L930.373 -154.26L929.633 -156.236L928.892 -158.211L927.904 -160.433L926.917 -162.408L925.929 -164.384L924.694 -166.359L923.46 -168.334L922.225 -170.31L918.028 -176.235L916.299 -178.952ZM777.289 -147.347C773.832 -125.866 753.585 -111.298 732.104 -114.755C710.623 -118.458 696.055 -138.705 699.512 -160.186C703.215 -181.668 723.462 -196.235 744.943 -192.779C766.425 -189.075 780.992 -168.828 777.289 -147.347ZM849.387 -46.6073C827.905 -50.311 807.659 -35.7432 803.955 -14.262C800.498 7.21924 815.066 27.4659 836.547 31.1696C858.029 34.6263 878.275 20.0585 881.979 -1.4227C885.436 -22.9039 870.868 -43.1506 849.387 -46.6073ZM648.401 -232.284L646.92 -234.013L645.438 -235.741L643.71 -237.222L641.982 -238.704L640.253 -240.185L638.525 -241.667L637.043 -243.148L635.315 -244.383L633.587 -245.617L631.611 -246.605L629.636 -247.593L627.661 -248.58L625.685 -249.568L623.71 -250.309L621.735 -251.049L619.76 -251.79L617.784 -252.531L615.809 -253.025L613.834 -253.519L611.858 -254.012L609.883 -254.259C608.649 -254.506 607.167 -254.753 605.933 -254.753C604.451 -255 603.217 -255 601.735 -255C600.254 -255 599.019 -255 597.538 -255C596.303 -255 594.822 -254.753 593.587 -254.753L591.612 -254.506L589.637 -254.259L587.661 -254.012L585.686 -253.519L583.711 -253.025L581.735 -252.531C579.76 -251.79 577.785 -251.296 575.81 -250.556C574.575 -250.062 573.34 -249.568 572.106 -248.827L570.131 -247.84L568.402 -246.852L566.674 -245.864L564.945 -244.877L563.217 -243.642L561.489 -242.408L559.76 -241.173L558.279 -239.939L556.797 -238.457L555.316 -236.976L553.834 -235.494L552.353 -234.013L550.872 -232.284L549.637 -230.556L548.402 -228.828L547.168 -227.099L545.933 -225.124L544.946 -223.149L543.958 -221.173L542.97 -219.198L541.983 -217.223L540.995 -215.001L540.501 -214.26L540.008 -213.272L539.514 -212.284L539.02 -211.297L538.773 -210.309L538.279 -209.322L538.032 -208.334L537.785 -207.346L537.538 -206.359L537.045 -205.371L536.798 -204.383L536.304 -203.396L536.057 -202.408L535.316 -200.186L535.069 -199.198L534.575 -198.211L534.328 -196.976L534.082 -195.988L533.835 -194.754L533.094 -192.532L532.353 -190.309L531.859 -189.322L531.612 -188.087L531.366 -186.853L530.625 -184.63L530.131 -183.643L529.39 -181.668L528.897 -180.433L528.156 -178.458L527.168 -176.235L526.674 -175.248L526.18 -174.26L524.699 -171.297L523.711 -169.322L523.218 -168.334L522.23 -166.359L521.736 -165.371L521.242 -164.631L520.748 -163.643L520.255 -162.902C519.514 -161.915 519.02 -161.174 518.279 -160.433C517.539 -159.692 517.045 -158.952 516.304 -157.964C514.823 -156.236 512.847 -154.754 510.872 -153.273C508.897 -151.791 506.921 -150.557 504.699 -149.569C503.712 -149.075 502.724 -148.828 501.736 -148.335C500.749 -147.841 499.761 -147.594 498.773 -147.347L497.786 -147.1L496.798 -146.853L495.81 -146.606L494.823 -146.359L492.601 -145.865L491.613 -145.619L489.391 -145.372L485.934 -144.878L484.699 -144.631L483.712 -144.384L481.49 -144.137H479.267H478.033H475.811H474.576H472.107H470.872H469.638H468.403H466.181H463.959H462.724H461.737H460.502H459.268H458.28H456.058H455.07H453.836H452.848H451.613H450.626H449.638H448.65L447.663 -143.89H446.675H445.688H444.7H443.712H442.725L440.502 -143.643L438.28 -143.396L436.058 -143.149L433.836 -142.656L431.614 -142.162L429.391 -141.668L427.416 -140.927L425.441 -140.186L423.466 -139.446L421.49 -138.705L419.515 -137.964L417.54 -136.977L415.811 -135.989L414.083 -135.001L412.355 -134.014L410.626 -132.779L408.898 -131.545L407.169 -130.31L405.688 -129.076L404.207 -127.841L402.725 -126.36L401.244 -124.878C400.256 -123.89 399.268 -122.903 398.281 -121.915C397.046 -120.434 395.812 -118.705 394.33 -116.977L393.096 -115.249L392.108 -113.52L391.12 -111.792L390.133 -110.063L389.145 -108.088L388.157 -106.36C387.664 -105.125 387.17 -103.891 386.676 -102.656C386.182 -101.422 385.688 -99.9401 385.194 -98.7055C384.701 -97.471 384.454 -96.2364 384.207 -94.7549C383.96 -93.5204 383.466 -92.0389 383.466 -90.8043L383.219 -88.8291L382.972 -86.6069L382.725 -84.6316V-82.6563V-80.4341V-78.212V-76.2366L382.972 -74.0144L383.219 -72.0392L383.466 -70.0639L383.713 -68.0886L384.207 -65.8664L384.701 -63.6442L385.441 -61.6689L386.182 -59.6936L386.923 -57.7183L387.91 -55.4961L388.898 -53.5209L389.886 -51.5455L391.12 -49.5703L392.355 -47.595L393.589 -45.6197L397.787 -39.6939L399.268 -37.7185L400.75 -35.9902L402.231 -34.2618L403.96 -32.7803L405.688 -31.2989L407.416 -29.8174L409.145 -28.336L410.873 -27.1014L412.602 -25.8668L414.33 -24.6323L416.305 -23.6447L418.28 -22.657L420.256 -21.6693L422.231 -20.6817L424.206 -19.941L426.182 -19.2002L428.157 -18.4595L430.132 -17.7188L432.107 -17.225L434.083 -16.7311L436.058 -16.4843L438.033 -16.2373C439.268 -15.9904 440.749 -15.7435 441.984 -15.7435C443.218 -15.7435 444.7 -15.4966 446.181 -15.4966C447.663 -15.4966 448.897 -15.4966 450.379 -15.4966C451.613 -15.4966 453.095 -15.7435 454.329 -15.7435L456.305 -15.9904L458.28 -16.2373L460.255 -16.4843L462.231 -16.978L464.206 -17.4719L466.181 -17.9657C468.156 -18.4595 470.132 -19.2003 472.107 -19.941C473.342 -20.4348 474.576 -20.9286 475.811 -21.6693L477.786 -22.657L479.514 -23.6447L481.243 -24.6323L482.971 -25.6199L487.909 -29.3236L489.638 -30.5581L491.119 -32.0396L492.601 -33.5211L494.082 -35.0026L495.564 -36.484L497.045 -38.2124L498.28 -39.9408L499.514 -41.6691L500.749 -43.3975L501.983 -45.1259L502.971 -47.1012L503.959 -49.0764L504.946 -51.0518L505.934 -53.027L506.675 -55.0023L507.168 -55.7431L507.662 -56.7307L508.156 -57.7183L508.65 -58.7059L508.897 -59.6936L509.391 -60.6813L509.637 -61.6689L509.884 -62.6565L510.131 -63.6442L510.625 -64.6319L510.872 -65.6195L511.366 -66.6071L511.613 -67.5947L512.353 -69.5701L512.6 -70.8046L512.847 -72.0392L513.341 -73.0268L513.588 -74.0144L513.835 -75.249L514.576 -77.4712L515.316 -79.6934L515.81 -80.6811L516.551 -82.9032L517.292 -85.1254L517.539 -86.36L518.279 -88.3352L518.773 -89.5698L519.514 -91.5451L520.502 -93.7673L520.995 -94.7549L521.489 -95.7426L522.971 -98.7055L523.958 -100.681C527.662 -107.1 532.106 -112.532 537.292 -116.73C542.97 -120.187 549.39 -122.656 556.797 -124.137L559.02 -124.384L562.476 -124.878L563.711 -125.125H564.945L567.168 -125.372H569.39H570.624H572.847H574.081H576.55H578.772H580.007H582.229H584.451H585.686H586.674H587.908H589.143H590.377H592.599H593.587H594.822H595.809H597.044H598.032H599.019H600.007L600.994 -125.619H601.982H602.97H603.957H604.945L605.933 -125.866H608.155L610.377 -126.113L612.599 -126.36L614.821 -126.853L617.044 -127.347L619.266 -127.841L621.488 -128.335L623.463 -129.076L625.439 -129.816L627.414 -130.557L629.389 -131.298L631.365 -132.285L633.093 -133.273L634.821 -134.261L636.55 -135.495L641.488 -139.199L642.969 -140.433L644.451 -141.668L645.932 -143.149L647.414 -144.631C648.401 -145.619 649.389 -146.606 650.377 -147.594C651.611 -149.075 652.846 -150.804 654.08 -152.532L655.315 -154.26L656.302 -155.989L657.29 -157.717L658.278 -159.446L659.265 -161.421L660.253 -163.149C660.747 -164.384 661.241 -165.618 661.734 -166.853C662.228 -168.087 662.722 -169.569 663.216 -170.803C663.71 -172.038 663.957 -173.519 664.204 -174.754C664.451 -175.989 664.944 -177.47 664.944 -178.705L665.191 -180.68L665.438 -182.655L665.685 -184.63L665.932 -186.606V-188.828V-191.05V-193.025L665.685 -195.248L665.438 -197.47L665.191 -199.445L664.944 -201.42L664.451 -203.643L663.957 -205.865L663.216 -207.84L662.475 -209.815L661.734 -211.791L660.747 -214.013L659.759 -215.988L658.772 -217.963L657.537 -219.939L656.302 -221.914L655.068 -223.889L650.87 -229.815L648.401 -232.284ZM581.488 -99.9401C560.007 -103.644 539.761 -89.076 536.057 -67.5947C532.6 -46.1135 547.168 -25.8668 568.649 -22.1632C590.13 -18.7064 610.377 -33.2742 614.081 -54.7554C617.537 -75.9898 602.97 -96.4833 581.488 -99.9401ZM313.837 -153.026C292.356 -156.73 272.109 -142.162 268.406 -120.681C264.949 -99.1993 279.517 -78.9527 300.998 -75.249C322.479 -71.7923 342.726 -86.36 346.429 -107.841C349.886 -129.322 335.318 -149.569 313.837 -153.026Z" fill="url(#paint0_linear_9_444)" fill-opacity="0.05"/>
<defs>
<linearGradient id="paint0_linear_9_444" x1="600.284" y1="-174.565" x2="600.284" y2="257.25" gradientUnits="userSpaceOnUse">
<stop offset="0.2128" stop-color="#009BA4"/>
<stop offset="1" stop-color="#0069B4"/>
</linearGradient>
</defs>
</svg>
