<svg width="460" height="163" viewBox="0 0 460 163" fill="none" xmlns="http://www.w3.org/2000/svg">
<path fill-rule="evenodd" clip-rule="evenodd" d="M60.7247 223.03C59.2844 231.989 50.8483 238.064 41.8978 236.622C32.9472 235.078 26.8773 226.634 28.3177 217.676C29.8609 208.718 38.297 202.643 47.2475 204.084C56.198 205.629 62.2679 214.072 60.7247 223.03ZM395.495 178.342C394.054 187.3 385.618 193.375 376.668 191.934C367.717 190.389 361.647 181.946 363.087 172.988C364.631 164.029 373.067 157.954 382.017 159.396C390.968 160.94 396.935 169.384 395.495 178.342ZM425.432 220.353C416.482 218.809 408.046 224.884 406.503 233.842C405.062 242.8 411.132 251.244 420.083 252.788C429.033 254.23 437.469 248.155 439.013 239.196C440.453 230.238 434.383 221.795 425.432 220.353ZM341.791 142.921L341.174 142.2L340.557 141.479L339.837 140.861L339.117 140.243L338.396 139.626L337.676 139.008L336.956 138.493L336.236 137.978L335.516 137.463L334.693 137.051L333.87 136.64L333.047 136.228L332.224 135.816L331.401 135.507L330.578 135.198L329.755 134.889L328.932 134.58L328.108 134.374L327.285 134.168L326.462 133.962L325.639 133.859C325.125 133.756 324.508 133.653 323.993 133.653C323.376 133.551 322.862 133.551 322.244 133.551C321.627 133.551 321.113 133.551 320.495 133.551C319.981 133.551 319.364 133.653 318.849 133.653L318.026 133.756L317.203 133.859L316.38 133.962L315.557 134.168L314.734 134.374L313.911 134.58C313.088 134.889 312.265 135.095 311.442 135.404C310.928 135.61 310.413 135.816 309.899 136.125L309.076 136.537L308.356 136.948L307.635 137.36L306.71 137.772L305.989 138.287L305.269 138.802L304.549 139.317L303.932 139.832L303.315 140.449L302.697 141.067L302.08 141.685L301.463 142.303L300.845 143.024L300.331 143.744L299.817 144.465L299.302 145.186L298.788 146.01L298.376 146.833L297.965 147.657L297.553 148.481L297.142 149.305L296.73 150.231L296.525 150.54L296.319 150.952L296.113 151.364L295.907 151.776L295.804 152.188L295.599 152.6L295.496 153.012L295.393 153.423L295.29 153.835L295.084 154.247L294.981 154.659L294.776 155.071L294.673 155.483L294.364 156.41L294.261 156.821L294.055 157.233L293.953 157.748L293.85 158.16L293.747 158.675L293.438 159.602L293.129 160.528L292.924 160.94L292.821 161.455L292.718 161.97L292.409 162.897L292.204 163.308L291.895 164.132L291.689 164.647L291.381 165.471L290.969 166.398L290.763 166.809L290.557 167.221L289.94 168.457L289.529 169.281L289.323 169.693L288.911 170.516L288.706 170.928L288.5 171.237L288.294 171.649L288.088 171.958C287.78 172.37 287.574 172.679 287.265 172.988C286.957 173.296 286.751 173.605 286.442 174.017C285.825 174.738 285.002 175.356 284.179 175.974C283.356 176.591 282.533 177.106 281.607 177.518C281.195 177.724 280.784 177.827 280.372 178.033C279.961 178.239 279.549 178.342 279.138 178.445L278.726 178.548L278.315 178.651L277.903 178.754L277.492 178.857L276.566 179.063L276.154 179.166L275.228 179.269L273.788 179.475L273.274 179.578L272.862 179.681L271.936 179.783H271.01H270.496H269.57H269.056H268.027H267.512H266.998H266.484H265.558H264.632H264.117H263.706H263.192H262.677H262.266H261.34H260.928H260.414H260.002H259.488H259.076H258.665H258.253L257.842 179.886H257.43H257.019H256.607H256.196H255.784L254.858 179.989L253.932 180.092L253.006 180.195L252.081 180.401L251.155 180.607L250.229 180.813L249.406 181.122L248.583 181.431L247.76 181.74L246.937 182.049L246.114 182.358L245.29 182.77L244.57 183.181L243.85 183.593L243.13 184.005L242.41 184.52L241.69 185.035L240.97 185.55L240.352 186.065L239.735 186.579L239.118 187.197L238.5 187.815C238.089 188.227 237.677 188.639 237.266 189.051C236.751 189.668 236.237 190.389 235.62 191.11L235.105 191.831L234.694 192.552L234.282 193.272L233.871 193.993L233.459 194.817L233.048 195.538C232.842 196.053 232.636 196.567 232.431 197.082C232.225 197.597 232.019 198.215 231.813 198.73C231.608 199.245 231.505 199.759 231.402 200.377C231.299 200.892 231.093 201.51 231.093 202.025L230.99 202.849L230.887 203.775L230.785 204.599V205.423V206.349V207.276V208.1L230.887 209.027L230.99 209.85L231.093 210.674L231.196 211.498L231.402 212.425L231.608 213.351L231.916 214.175L232.225 214.999L232.533 215.823L232.945 216.749L233.357 217.573L233.768 218.397L234.282 219.221L234.797 220.044L235.311 220.868L237.06 223.339L237.677 224.163L238.295 224.884L238.912 225.605L239.632 226.222L240.352 226.84L241.072 227.458L241.793 228.076L242.513 228.591L243.233 229.106L243.953 229.62L244.776 230.032L245.599 230.444L246.422 230.856L247.245 231.268L248.068 231.577L248.891 231.886L249.714 232.195L250.537 232.504L251.36 232.709L252.183 232.915L253.006 233.018L253.829 233.121C254.344 233.224 254.961 233.327 255.476 233.327C255.99 233.327 256.607 233.43 257.225 233.43C257.842 233.43 258.356 233.43 258.973 233.43C259.488 233.43 260.105 233.327 260.62 233.327L261.443 233.224L262.266 233.121L263.089 233.018L263.912 232.812L264.735 232.606L265.558 232.401C266.381 232.195 267.204 231.886 268.027 231.577C268.541 231.371 269.056 231.165 269.57 230.856L270.393 230.444L271.113 230.032L271.833 229.62L272.554 229.208L274.611 227.664L275.331 227.149L275.949 226.531L276.566 225.913L277.183 225.296L277.8 224.678L278.418 223.957L278.932 223.236L279.447 222.516L279.961 221.795L280.475 221.074L280.887 220.25L281.298 219.426L281.71 218.603L282.121 217.779L282.43 216.955L282.636 216.646L282.841 216.234L283.047 215.823L283.253 215.411L283.356 214.999L283.562 214.587L283.665 214.175L283.767 213.763L283.87 213.351L284.076 212.939L284.179 212.528L284.385 212.116L284.488 211.704L284.796 210.88L284.899 210.365L285.002 209.85L285.208 209.438L285.311 209.027L285.413 208.512L285.722 207.585L286.031 206.658L286.237 206.246L286.545 205.32L286.854 204.393L286.957 203.878L287.265 203.054L287.471 202.54L287.78 201.716L288.191 200.789L288.397 200.377L288.603 199.965L289.22 198.73L289.632 197.906C291.175 195.229 293.027 192.964 295.187 191.213C297.553 189.771 300.228 188.742 303.315 188.124L304.24 188.021L305.681 187.815L306.195 187.712H306.71L307.635 187.609H308.561H309.076H310.002H310.516H311.545H312.471H312.985H313.911H314.837H315.351H315.763H316.277H316.792H317.306H318.232H318.644H319.158H319.569H320.084H320.495H320.907H321.318L321.73 187.506H322.141H322.553H322.965H323.376L323.788 187.403H324.713L325.639 187.3L326.565 187.197L327.491 186.991L328.417 186.785L329.343 186.579L330.269 186.374L331.092 186.065L331.915 185.756L332.738 185.447L333.561 185.138L334.384 184.726L335.104 184.314L335.824 183.902L336.545 183.387L338.602 181.843L339.219 181.328L339.837 180.813L340.454 180.195L341.071 179.578C341.483 179.166 341.894 178.754 342.306 178.342C342.82 177.724 343.335 177.003 343.849 176.283L344.363 175.562L344.775 174.841L345.186 174.12L345.598 173.399L346.01 172.576L346.421 171.855C346.627 171.34 346.833 170.825 347.038 170.31C347.244 169.796 347.45 169.178 347.656 168.663C347.861 168.148 347.964 167.53 348.067 167.015C348.17 166.501 348.376 165.883 348.376 165.368L348.479 164.544L348.582 163.72L348.684 162.897L348.787 162.073V161.146V160.219V159.396L348.684 158.469L348.582 157.542L348.479 156.718L348.376 155.895L348.17 154.968L347.964 154.041L347.656 153.218L347.347 152.394L347.038 151.57L346.627 150.643L346.215 149.82L345.804 148.996L345.289 148.172L344.775 147.348L344.261 146.525L342.512 144.053L341.791 142.921ZM283.87 156.204C282.43 165.162 273.994 171.237 265.043 169.796C256.093 168.251 250.023 159.808 251.463 150.849C253.006 141.891 261.443 135.816 270.393 137.257C279.344 138.802 285.413 147.245 283.87 156.204ZM313.911 198.112C304.961 196.567 296.525 202.643 294.981 211.601C293.541 220.559 299.611 229.003 308.561 230.547C317.512 231.989 325.948 225.914 327.491 216.955C328.932 208.1 322.862 199.553 313.911 198.112ZM230.167 120.679L229.55 119.959L228.933 119.238L228.213 118.62L227.492 118.002L226.772 117.384L226.052 116.767L225.435 116.149L224.715 115.634L223.994 115.119L223.171 114.707L222.348 114.295L221.525 113.883L220.702 113.472L219.879 113.163L219.056 112.854L218.233 112.545L217.41 112.236L216.587 112.03L215.764 111.824L214.941 111.618L214.118 111.515C213.604 111.412 212.986 111.309 212.472 111.309C211.855 111.206 211.34 111.206 210.723 111.206C210.106 111.206 209.591 111.206 208.974 111.206C208.46 111.206 207.842 111.309 207.328 111.309L206.505 111.412L205.682 111.515L204.859 111.618L204.036 111.824L203.213 112.03L202.39 112.236C201.567 112.545 200.744 112.751 199.921 113.06C199.406 113.266 198.892 113.472 198.377 113.781L197.554 114.192L196.834 114.604L196.114 115.016L195.394 115.428L194.674 115.943L193.954 116.458L193.233 116.973L192.616 117.487L191.999 118.105L191.382 118.723L190.764 119.341L190.147 119.959L189.53 120.679L189.015 121.4L188.501 122.121L187.987 122.842L187.472 123.665L187.061 124.489L186.649 125.313L186.238 126.137L185.826 126.961L185.415 127.887L185.209 128.196L185.003 128.608L184.797 129.02L184.592 129.432L184.489 129.844L184.283 130.256L184.18 130.667L184.077 131.079L183.974 131.491L183.769 131.903L183.666 132.315L183.46 132.727L183.357 133.139L183.048 134.065L182.946 134.477L182.74 134.889L182.637 135.404L182.534 135.816L182.431 136.331L182.122 137.257L181.814 138.184L181.608 138.596L181.505 139.111L181.402 139.626L181.094 140.552L180.888 140.964L180.579 141.788L180.374 142.303L180.065 143.127L179.653 144.053L179.448 144.465L179.242 144.877L178.625 146.113L178.213 146.936L178.007 147.348L177.596 148.172L177.39 148.584L177.184 148.893L176.979 149.305L176.773 149.614C176.464 150.026 176.258 150.334 175.95 150.643C175.641 150.952 175.435 151.261 175.127 151.673C174.509 152.394 173.686 153.012 172.863 153.629C172.04 154.247 171.217 154.762 170.291 155.174C169.88 155.38 169.468 155.483 169.057 155.689C168.645 155.895 168.234 155.998 167.822 156.101L167.411 156.204L166.999 156.307H165.765L165.353 156.41L164.427 156.616L164.016 156.718L163.09 156.821L161.649 157.027L161.135 157.13L160.724 157.233L159.798 157.336H158.872H158.357H157.431H156.917H155.888H155.374H154.859H154.345H153.419H152.493H151.979H151.567H151.053H150.538H150.127H149.201H148.79H148.275H147.864H147.349H146.938H146.526H146.115L145.703 157.439H145.292H144.88H144.469H144.057H143.646L142.72 157.542L141.794 157.645L140.868 157.748L139.942 157.954L139.016 158.16L138.09 158.366L137.267 158.675L136.444 158.984L135.621 159.293L134.798 159.602L133.975 159.911L133.152 160.322L132.432 160.734L131.712 161.146L130.991 161.558L130.271 162.073L129.551 162.588L128.831 163.103L128.214 163.617L127.596 164.132L126.979 164.75L126.362 165.368C125.95 165.78 125.539 166.192 125.127 166.603C124.613 167.221 124.098 167.942 123.481 168.663L122.967 169.384L122.555 170.104L122.144 170.825L121.732 171.546L121.321 172.37L120.909 173.091C120.703 173.605 120.498 174.12 120.292 174.635C120.086 175.15 119.88 175.768 119.675 176.283C119.469 176.797 119.366 177.312 119.263 177.93C119.16 178.445 118.954 179.063 118.954 179.578L118.852 180.401L118.749 181.328L118.646 182.152V182.976V183.902V184.829V185.653L118.749 186.579L118.852 187.403L118.954 188.227L119.057 189.051L119.263 189.977L119.469 190.904L119.778 191.728L120.086 192.552L120.395 193.375L120.806 194.302L121.218 195.126L121.629 195.95L122.144 196.773L122.658 197.597L123.173 198.421L124.922 200.892L125.539 201.716L126.156 202.437L126.773 203.157L127.493 203.775L128.214 204.393L128.934 205.011L129.654 205.629L130.374 206.144L131.094 206.658L131.814 207.173L132.637 207.585L133.461 207.997L134.284 208.409L135.107 208.821L135.93 209.13L136.753 209.438L137.576 209.747L138.399 210.056L139.222 210.262L140.045 210.468L140.868 210.571L141.691 210.674C142.205 210.777 142.823 210.88 143.337 210.88C143.851 210.88 144.469 210.983 145.086 210.983C145.703 210.983 146.218 210.983 146.835 210.983C147.349 210.983 147.967 210.88 148.481 210.88L149.304 210.777L150.127 210.674L150.95 210.571L151.773 210.365L152.596 210.159L153.419 209.953C154.242 209.747 155.065 209.438 155.888 209.13C156.403 208.924 156.917 208.718 157.431 208.409L158.254 207.997L158.975 207.585L159.695 207.173L160.415 206.761L162.473 205.217L163.193 204.702L163.81 204.084L164.427 203.466L165.045 202.849L165.662 202.231L166.279 201.51L166.793 200.789L167.308 200.068L167.822 199.348L168.337 198.627L168.748 197.803L169.16 196.979L169.571 196.156L169.983 195.332L170.291 194.508L170.497 194.199L170.703 193.787L170.909 193.375L171.114 192.963L171.217 192.552L171.423 192.14L171.526 191.728L171.629 191.316L171.732 190.904L171.937 190.492L172.04 190.08L172.246 189.669L172.349 189.257L172.658 188.433L172.76 187.918L172.863 187.403L173.069 186.991L173.172 186.579L173.275 186.065L173.584 185.138L173.892 184.211L174.098 183.799L174.407 182.873L174.715 181.946L174.818 181.431L175.127 180.607L175.332 180.092L175.641 179.269L176.053 178.342L176.258 177.93L176.464 177.518L177.081 176.283L177.493 175.459C179.036 172.782 180.888 170.516 183.048 168.766C185.415 167.324 188.09 166.295 191.176 165.677L192.102 165.574L193.542 165.368L194.057 165.265H194.571L195.497 165.162H196.423H196.937H197.863H198.377H199.406H200.332H200.847H201.772H202.698H203.213H203.624H204.139H204.653H205.167H206.093H206.505H207.019H207.431H207.945H208.357H208.768H209.18L209.591 165.059H210.003H210.414H210.826H211.237L211.649 164.956H212.575L213.501 164.853L214.427 164.75L215.353 164.544L216.279 164.338L217.204 164.132L218.13 163.926L218.953 163.617L219.776 163.308L220.599 163L221.422 162.691L222.245 162.279L222.966 161.867L223.686 161.455L224.406 160.94L226.464 159.396L227.081 158.881L227.698 158.366L228.315 157.748L228.933 157.13C229.344 156.718 229.756 156.307 230.167 155.895C230.682 155.277 231.196 154.556 231.71 153.835L232.225 153.115L232.636 152.394L233.048 151.673L233.459 150.952L233.871 150.128L234.282 149.408C234.488 148.893 234.694 148.378 234.9 147.863C235.105 147.348 235.311 146.731 235.517 146.216C235.723 145.701 235.826 145.083 235.928 144.568C236.031 144.053 236.237 143.436 236.237 142.921L236.34 142.097L236.443 141.273L236.546 140.449L236.649 139.626V138.699V137.772V136.948L236.546 136.022L236.443 135.095L236.34 134.271L236.237 133.448L236.031 132.521L235.826 131.594L235.517 130.77L235.208 129.947L234.9 129.123L234.488 128.196L234.077 127.372L233.665 126.549L233.151 125.725L232.636 124.901L232.122 124.077L230.373 121.606L230.167 120.679ZM172.349 133.962C170.909 142.921 162.473 148.996 153.522 147.554C144.571 146.01 138.502 137.566 139.942 128.608C141.485 119.65 149.921 113.575 158.872 115.016C167.822 116.561 173.789 125.004 172.349 133.962ZM202.287 175.974C193.336 174.429 184.9 180.504 183.357 189.463C181.917 198.421 187.987 206.864 196.937 208.409C205.888 209.85 214.324 203.775 215.867 194.817C217.307 185.859 211.237 177.415 202.287 175.974ZM118.646 98.5411L118.029 97.8204L117.411 97.0996L116.691 96.4817L115.971 95.8639L115.251 95.2461L114.531 94.6283L113.811 94.1135L113.09 93.5986L112.37 93.0838L111.547 92.6719L110.724 92.26L109.901 91.8481L109.078 91.4363L108.255 91.1274L107.432 90.8185L106.609 90.5096L105.786 90.2006L104.963 89.9947L104.14 89.7888L103.317 89.5828L102.494 89.4799C101.979 89.3769 101.362 89.2739 100.848 89.2739C100.23 89.171 99.716 89.1709 99.0988 89.1709C98.4815 89.1709 97.9671 89.1709 97.3498 89.1709C96.8354 89.1709 96.2181 89.2739 95.7037 89.2739L94.8807 89.3769L94.0577 89.4799L93.2346 89.5828L92.4116 89.7888L91.5885 89.9947L90.7655 90.2006C89.9425 90.5095 89.1194 90.7155 88.2964 91.0244C87.782 91.2303 87.2676 91.4363 86.7532 91.7452L85.9302 92.1571L85.21 92.5689L84.4899 92.9808L83.7697 93.3927L83.0496 93.9075L82.3294 94.4224L81.6092 94.9372L80.992 95.452L80.3747 96.0699L79.7574 96.6877L79.1401 97.3055L78.5229 97.9233L77.9056 98.6441L77.3912 99.3649L76.8768 100.086L76.3624 100.806L75.848 101.63L75.4365 102.454L75.025 103.278L74.6134 104.101L74.2019 104.925L73.7904 105.852L73.5846 106.161L73.3789 106.573L73.1731 106.985L72.9674 107.396L72.8645 107.808L72.6587 108.22L72.5558 108.632L72.453 109.044L72.3501 109.456L72.1443 109.868L72.0414 110.28L71.8357 110.691L71.7328 111.103L71.4242 112.03L71.3213 112.442L71.1155 112.854L71.0126 113.369L70.9098 113.781L70.8069 114.295L70.4982 115.222L70.1896 116.149L69.9838 116.561L69.881 117.075L69.7781 117.59L69.4695 118.517L69.2637 118.929L68.9551 119.753L68.7493 120.268L68.4407 121.091L68.0291 122.018L67.8234 122.43L67.6176 122.842L67.0004 124.077L66.5888 124.901L66.3831 125.313L65.9716 126.137L65.7658 126.549L65.56 126.858L65.3543 127.269L65.1485 127.578C64.8399 127.99 64.6341 128.299 64.3255 128.608C64.0168 128.917 63.8111 129.226 63.5025 129.638C62.8852 130.358 62.0621 130.976 61.2391 131.594C60.4161 132.212 59.593 132.727 58.6671 133.139C58.2556 133.345 57.8441 133.448 57.4326 133.653C57.021 133.859 56.6095 133.962 56.198 134.065L55.7865 134.168L55.375 134.271L54.9635 134.374L54.5519 134.477L53.626 134.683L53.2145 134.786L52.2886 134.889L50.8483 135.095L50.3339 135.198L49.9223 135.301L48.9964 135.404H48.0705H47.5561H46.6302H46.1158H45.087H44.5726H44.0582H43.5438H42.6179H41.692H41.1776H40.7661H40.2517H39.7373H39.3258H38.3998H37.9883H37.4739H37.0624H36.548H36.1365H35.725H35.3135L34.902 135.507H34.4904H34.0789H33.6674H33.2559H32.8444L31.9184 135.61L30.9925 135.713L30.0666 135.816L29.1407 136.022L28.2148 136.228L27.2889 136.434L26.4658 136.743H24.8198L23.9967 137.051L23.1737 137.36L22.3507 137.669L21.5276 138.081L20.8075 138.493L20.0873 138.905L19.3671 139.317L18.647 139.832L17.9268 140.346L17.2067 140.861L16.5894 141.376L15.9721 141.891L15.3549 142.509L14.7376 143.127C14.326 143.538 13.9145 143.95 13.503 144.362C12.9886 144.98 12.4742 145.701 11.8569 146.422L11.3425 147.142L10.931 147.863L10.5195 148.584L10.108 149.305L9.69648 150.128L9.28496 150.849C9.0792 151.364 8.87344 151.879 8.66768 152.394C8.46193 152.909 8.25616 153.526 8.0504 154.041C7.84464 154.556 7.74177 155.071 7.63889 155.689C7.53601 156.204 7.33025 156.821 7.33025 157.336L7.22737 158.16L7.12449 159.087L7.02161 159.911V160.734V161.661V162.588V163.411L7.12449 164.338L7.22737 165.162L7.33025 165.986L7.43312 166.809L7.63889 167.736L7.84465 168.663L8.15329 169.487L8.46192 170.31L8.77056 171.134L9.18208 172.061L9.59359 172.885L10.0051 173.708L10.5195 174.532L11.0339 175.356L11.5483 176.18L13.2973 178.651L13.9145 179.475L14.5318 180.195L15.1491 180.916L15.8692 181.534L16.5894 182.152L17.3096 182.77L18.0297 183.387L18.7499 183.902L19.47 184.417L20.1902 184.932L21.0132 185.344L21.8363 185.756L22.6593 186.168L23.4823 186.579L24.3054 186.888L25.1284 187.197L25.9514 187.506L26.7745 187.815L27.5975 188.021L28.4205 188.227L29.2436 188.33L30.0666 188.433C30.581 188.536 31.1983 188.639 31.7127 188.639C32.2271 188.639 32.8444 188.742 33.4616 188.742C34.0789 188.742 34.5933 188.742 35.2106 188.742C35.725 188.742 36.3423 188.639 36.8567 188.639L37.6797 188.536L38.5027 188.433L39.3258 188.33L40.1488 188.124L40.9718 187.918L41.7949 187.712C42.6179 187.506 43.4409 187.197 44.264 186.888C44.7784 186.682 45.2928 186.476 45.8072 186.168L46.6302 185.756L47.3504 185.344L48.0705 184.932L48.7907 184.52L50.8483 182.976L51.5684 182.461L52.1857 181.843L52.803 181.225L53.4203 180.607L54.0375 179.989L54.6548 179.269L55.1692 178.548L55.6836 177.827L56.198 177.106L56.7124 176.386L57.1239 175.562L57.5354 174.738L57.947 173.914L58.3585 173.091L58.6671 172.267L58.8729 171.958L59.0786 171.546L59.2844 171.134L59.4901 170.722L59.593 170.31L59.7988 169.898L59.9017 169.487L60.0045 169.075L60.1074 168.663L60.3132 168.251L60.4161 167.839L60.6218 167.427L60.7247 167.015L61.0333 166.192L61.1362 165.677L61.2391 165.162L61.4449 164.75L61.5477 164.338L61.6506 163.823L61.9593 162.897L62.2679 161.97L62.4737 161.558L62.7823 160.631L63.0909 159.705L63.1938 159.19L63.5025 158.366L63.7082 157.851L64.0169 157.027L64.4284 156.101L64.6341 155.689L64.8399 155.277L65.4572 154.041L65.8687 153.218C67.4119 150.54 69.2637 148.275 71.4242 146.525C73.7904 145.083 76.4653 144.053 79.5516 143.436L80.4776 143.333L81.9179 143.127L82.4323 143.024H82.9467L83.8726 142.921H84.7985H85.3129H86.2388H86.7532H87.782H88.7079H89.2223H90.1482H91.0741H91.5885H92.0001H92.5145H93.0289H93.5433H94.4692H94.8807H95.3951H95.8066H96.321H96.7325H97.144H97.5556L97.9671 142.818H98.3786H98.7901H99.2016H99.6131L100.025 142.715H100.951L101.876 142.612L102.802 142.509L103.728 142.303L104.654 142.097L105.58 141.891L106.506 141.685L107.329 141.376L108.152 141.067L108.975 140.758L109.798 140.449L110.621 140.038L111.341 139.626L112.062 139.214L112.782 138.699L114.839 137.154L115.457 136.64L116.074 136.125L116.691 135.507L117.308 134.889C117.72 134.477 118.131 134.065 118.543 133.653C119.057 133.036 119.572 132.315 120.086 131.594L120.601 130.873L121.012 130.153L121.424 129.432L121.835 128.711L122.247 127.887L122.658 127.166C122.864 126.652 123.07 126.137 123.275 125.622C123.481 125.107 123.687 124.489 123.893 123.974C124.098 123.46 124.201 122.842 124.304 122.327C124.407 121.812 124.613 121.194 124.613 120.679L124.716 119.856L124.819 119.032L124.922 118.208L125.024 117.384V116.458V115.531V114.707L124.922 113.781L124.819 112.854L124.716 112.03L124.613 111.206L124.407 110.28L124.201 109.353L123.893 108.529L123.584 107.705L123.275 106.882L122.864 105.955L122.452 105.131L122.041 104.307L121.526 103.484L121.012 102.66L120.498 101.836L118.749 99.3649L118.646 98.5411ZM60.7247 111.721C59.2844 120.679 50.8483 126.755 41.8978 125.313C32.9472 123.768 26.8773 115.325 28.3177 106.367C29.8609 97.4085 38.297 91.3333 47.2475 92.7749C56.198 94.3194 62.2679 102.763 60.7247 111.721ZM90.7655 153.732C81.815 152.188 73.3789 158.263 71.8357 167.221C70.3954 176.18 76.4653 184.623 85.4158 186.168C94.3663 187.609 102.802 181.534 104.346 172.576C105.786 163.617 99.716 155.174 90.7655 153.732ZM-20.8587 131.491C-29.8092 129.947 -38.2454 136.022 -39.7886 144.98C-41.2289 153.938 -35.159 162.382 -26.2085 163.926C-17.2579 165.368 -8.82183 159.293 -7.27864 150.334C-5.83833 141.479 -11.9082 132.933 -20.8587 131.491ZM453.313 53.8527L452.696 53.1319L452.078 52.4111L451.358 51.7933L450.638 51.1755L449.918 50.5577L449.198 49.9399L448.477 49.425L447.757 48.9102L447.037 48.3953L446.214 47.9834L445.391 47.5716L444.568 47.1597L443.745 46.7478L442.922 46.4389L442.099 46.13L441.276 45.8211L440.453 45.5122L439.63 45.3063L438.807 45.1003L437.984 44.8944L437.161 44.7914C436.646 44.6885 436.029 44.5855 435.515 44.5855C434.897 44.4825 434.383 44.4825 433.766 44.4825C433.148 44.4825 432.634 44.4825 432.017 44.4825C431.502 44.4825 430.885 44.5855 430.371 44.5855L429.548 44.6884L428.725 44.7914L427.902 44.8944L427.079 45.1003L426.256 45.3063L425.432 45.5122C424.609 45.8211 423.786 46.0271 422.963 46.336C422.449 46.5419 421.935 46.7478 421.42 47.0567L420.597 47.4686L419.877 47.8805L419.157 48.2924L418.437 48.7042L417.717 49.2191L416.996 49.7339L416.276 50.2488L415.659 50.7636L415.042 51.3814L414.424 51.9992L413.807 52.617L413.19 53.2348L412.573 53.9556L412.058 54.6764L411.544 55.3972L411.029 56.118L410.515 56.9417L410.103 57.7655L409.692 58.5892L409.28 59.413L408.869 60.2367L408.457 61.1635L408.252 61.4723L408.046 61.8842L407.84 62.2961L407.634 62.708L407.531 63.1199L407.326 63.5317L407.223 63.9436L407.12 64.3555L407.017 64.7674L406.811 65.1792L406.708 65.5911L406.503 66.003L406.4 66.4149L406.091 67.3416L405.988 67.7534L405.783 68.1653L405.68 68.6802L405.577 69.092L405.474 69.6069L405.165 70.5336L404.857 71.4603L404.651 71.8722L404.548 72.387L404.445 72.9019L404.136 73.8286L403.416 73.9316L403.108 74.7553L402.902 75.2702L402.593 76.0939L402.182 77.0206L401.976 77.4325L401.77 77.8444L401.153 79.08L400.741 79.9038L400.536 80.3157L400.124 81.1394L399.918 81.5513L399.713 81.8602L399.507 82.2721L399.301 82.5809C398.992 82.9928 398.787 83.3017 398.478 83.6106C398.169 83.9195 397.964 84.2284 397.655 84.6403C397.038 85.3611 396.215 85.9789 395.392 86.5967C394.569 87.2145 393.746 87.7294 392.82 88.1413C392.408 88.3472 391.997 88.4502 391.585 88.6561C391.174 88.862 390.762 88.965 390.351 89.068L389.939 89.1709L389.528 89.2739L389.116 89.3769L388.705 89.4799L387.779 89.6858L387.367 89.7888L386.441 89.8917L385.001 90.0977L384.486 90.2006L384.075 90.3036L383.149 90.4066H382.223H381.709H380.783H380.268H379.24H378.725H378.211H377.696H376.771H375.845H375.33H374.919H374.404H373.89H373.478H372.552H372.141H371.627H371.215H370.701H370.289H369.878H369.466L369.055 90.5096H368.643H368.231H367.82H367.408H366.997L366.071 90.6125L365.145 90.7155L364.219 90.8185L363.293 91.0244L362.367 91.2303L361.441 91.4363L360.618 91.7452L359.795 92.0541L358.972 92.363L358.149 92.6719L357.326 92.9808L356.503 93.3927L355.783 93.8045L355.063 94.2164L354.343 94.6283L353.623 95.1432L352.902 95.658L352.182 96.1728L351.565 96.6877L350.948 97.2025L350.33 97.8204L349.713 98.4381C349.302 98.85 348.89 99.2619 348.479 99.6738C347.964 100.292 347.45 101.012 346.833 101.733L346.318 102.454L345.907 103.175L345.495 103.896L345.084 104.616L344.672 105.44L344.261 106.161C344.055 106.676 343.849 107.19 343.643 107.705C343.438 108.22 343.232 108.838 343.026 109.353C342.82 109.868 342.717 110.383 342.615 111C342.512 111.515 342.306 112.133 342.306 112.648L342.203 113.472L342.1 114.398L341.997 115.222V116.046V116.973V117.899V118.723L342.1 119.65L342.203 120.473L342.306 121.297L342.409 122.121L342.615 123.048L342.82 123.974L343.129 124.798L343.438 125.622L343.746 126.446L344.158 127.372L344.569 128.196L344.981 129.02L345.495 129.844L346.01 130.667L346.524 131.491L348.273 133.962L348.89 134.786L349.507 135.507L350.125 136.228L350.845 136.846L351.565 137.463L352.285 138.081L353.005 138.699L353.725 139.214L354.446 139.729L355.166 140.243L355.989 140.655L356.812 141.067L357.635 141.479L358.458 141.891L359.281 142.2L360.104 142.509L360.927 142.818L361.75 143.127L362.573 143.333L363.396 143.538L364.219 143.641L365.042 143.744C365.557 143.847 366.174 143.95 366.688 143.95C367.203 143.95 367.82 144.053 368.437 144.053C369.055 144.053 369.569 144.053 370.186 144.053C370.701 144.053 371.318 143.95 371.832 143.95L372.655 143.847L373.478 143.744L374.301 143.641L375.124 143.436L375.947 143.23L376.771 143.024C377.594 142.818 378.417 142.509 379.24 142.2C379.754 141.994 380.268 141.788 380.783 141.479L381.606 141.067L382.326 140.655L383.046 140.243L383.766 139.832L385.824 138.287L386.544 137.772L387.161 137.154L387.779 136.537L388.396 135.919L389.013 135.301L389.63 134.58L390.145 133.859L390.659 133.139L391.174 132.418L391.688 131.697L392.1 130.873L392.511 130.05L392.923 129.226L393.334 128.402L393.643 127.578L393.849 127.269L394.054 126.858L394.26 126.446L394.466 126.034L394.569 125.622L394.774 125.21L394.877 124.798L394.98 124.386L395.083 123.974L395.289 123.563L395.392 123.151L395.597 122.739L395.7 122.327L396.009 121.503L396.112 120.988L396.215 120.473L396.42 120.062L396.523 119.65L396.626 119.135L396.935 118.208L397.243 117.281L397.449 116.87L397.758 115.943L398.067 115.016L398.169 114.501L398.478 113.678L398.684 113.163L398.992 112.339L399.404 111.412L399.61 111L399.815 110.588L400.433 109.353L400.844 108.529C402.387 105.852 404.239 103.587 406.4 101.836C408.766 100.395 411.441 99.3649 414.527 98.7471L415.453 98.6441L416.893 98.4381L417.408 98.3352H417.922L418.848 98.2322H419.774H420.289H421.214H421.729H422.758H423.684H424.198H425.124H426.05H426.564H426.976H427.49H428.004H428.519H429.445H429.856H430.371H430.782H431.297H431.708H432.12H432.531L432.943 98.1292H433.354H433.766H434.177H434.589L435 98.0263H435.926L436.852 97.9233L437.778 97.8204L438.704 97.6144L439.63 97.4084L440.556 97.2025L441.482 96.9966L442.305 96.6877L443.128 96.3788L443.951 96.0699L444.774 95.761L445.597 95.3491L446.317 94.9372L447.037 94.5253L447.757 94.0105L449.815 92.466L450.432 91.9511L451.049 91.4363L451.667 90.8185L452.284 90.2006C452.696 89.7888 453.107 89.3769 453.519 88.965C454.033 88.3472 454.547 87.6264 455.062 86.9056L455.576 86.1849L455.988 85.4641L456.399 84.7433L456.811 84.0225L457.222 83.1988L457.634 82.478C457.84 81.9631 458.045 81.4483 458.251 80.9334C458.457 80.4186 458.663 79.8008 458.868 79.286C459.074 78.7711 459.177 78.1533 459.28 77.6385C459.383 77.1236 459.588 76.5058 459.588 75.991L459.691 75.1672L459.794 74.3434L459.897 73.5197L460 72.6959V71.7692V70.8425V70.0188L459.897 69.092L459.794 68.1653L459.691 67.3416L459.588 66.5178L459.383 65.5911L459.177 64.6644L458.868 63.8406L458.56 63.0169L458.251 62.1931L457.84 61.2664L457.428 60.4427L457.016 59.6189L456.502 58.7952L455.988 57.9714L455.473 57.1477L453.724 54.6764L453.313 53.8527ZM395.495 67.1356C394.054 76.0939 385.618 82.1691 376.668 80.7275C367.717 79.183 361.647 70.7396 363.087 61.7813C364.631 52.823 373.067 46.7478 382.017 48.1894C390.968 49.7339 396.935 58.1773 395.495 67.1356ZM425.432 109.147C416.482 107.602 408.046 113.678 406.503 122.636C405.062 131.594 411.132 140.038 420.083 141.582C429.033 143.024 437.469 136.948 439.013 127.99C440.453 119.032 434.383 110.588 425.432 109.147ZM341.791 31.7144L341.174 30.9936L340.557 30.2728L339.837 29.655L339.117 29.0372L338.396 28.4194L337.676 27.8016L336.956 27.2867L336.236 26.7719L335.516 26.257L334.693 25.8451L333.87 25.4333L333.047 25.0214L332.224 24.6095L331.401 24.3006L330.578 23.9917L329.755 23.6828L328.932 23.3739L328.108 23.168L327.285 22.962L326.462 22.7561L325.639 22.6531C325.125 22.5502 324.508 22.4472 323.993 22.4472C323.376 22.3442 322.862 22.3442 322.244 22.3442C321.627 22.3442 321.113 22.3442 320.495 22.3442C319.981 22.3442 319.364 22.4472 318.849 22.4472L318.026 22.5502L317.203 22.6531L316.38 22.7561L315.557 22.962L314.734 23.168L313.911 23.3739C313.088 23.6828 312.265 23.8888 311.442 24.1977C310.928 24.4036 310.413 24.6095 309.899 24.9184L309.076 25.3303L308.356 25.7422L307.635 26.1541L306.71 26.5659L305.989 27.0808L305.269 27.5956L304.549 28.1105L303.932 28.6253L303.315 29.2431L302.697 29.8609L302.08 30.4787L301.463 31.0966L300.845 31.8173L300.331 32.5381L299.817 33.2589L299.302 33.9797L298.788 34.8034L298.376 35.6272L297.965 36.4509L297.553 37.2747L297.142 38.0984L296.73 39.0252L296.525 39.3341L296.319 39.7459L296.113 40.1578L295.907 40.5697L295.804 40.9816L295.599 41.3934L295.496 41.8053L295.393 42.2172L295.29 42.6291L295.084 43.0409L294.981 43.4528L294.776 43.8647L294.673 44.2766L294.364 45.2033L294.261 45.6152L294.055 46.027L293.953 46.5419L293.85 46.9537L293.747 47.4686L293.438 48.3953L293.129 49.322L292.924 49.7339L292.821 50.2488L292.718 50.7636L292.409 51.6903L292.204 52.1022L291.895 52.9259L291.689 53.4408L291.381 54.2645L290.969 55.1912L290.763 55.6031L290.557 56.015L289.94 57.2506L289.529 58.0744L289.323 58.4863L288.911 59.31L288.706 59.7219L288.5 60.0308L288.294 60.4427L288.088 60.7516C287.78 61.1635 287.574 61.4724 287.265 61.7813C286.957 62.0902 286.751 62.3991 286.442 62.811C285.825 63.5317 285.002 64.1496 284.179 64.7674C283.356 65.3852 282.533 65.9 281.607 66.3119C281.195 66.5178 280.784 66.6208 280.372 66.8267C279.961 67.0327 279.549 67.1356 279.138 67.2386L278.726 67.3416L278.315 67.4446L277.903 67.5475L277.492 67.6505L276.566 67.8564L276.154 67.9594L275.228 68.0623L273.788 68.2683L273.274 68.3713L272.862 68.4742L271.936 68.5772H271.01H270.496H269.57H269.056H268.027H267.512H266.998H266.484H265.558H264.632H264.117H263.706H263.192H262.677H262.266H261.34H260.928H260.414H260.002H259.488H259.076H258.665H258.253L257.842 68.6802H257.43H257.019H256.607H256.196H255.784L254.858 68.7831L253.932 68.8861L253.006 68.9891L252.081 69.195L251.155 69.401L250.229 69.6069L249.406 69.9158L248.583 70.2247L247.76 70.5336L246.937 70.8425L246.114 71.1514L245.29 71.5633L244.57 71.9752L243.85 72.387L243.13 72.7989L242.41 73.3138L241.69 73.8286L240.97 74.3434L240.352 74.8583L239.735 75.3731L239.118 75.991L238.5 76.6088C238.089 77.0206 237.677 77.4325 237.266 77.8444C236.751 78.4622 236.237 79.183 235.62 79.9038L235.105 80.6245L234.694 81.3453L234.282 82.0661L233.871 82.7869L233.459 83.6106L233.048 84.3314C232.842 84.8463 232.636 85.3611 232.431 85.876C232.225 86.3908 232.019 87.0086 231.813 87.5235C231.608 88.0383 231.505 88.5531 231.402 89.1709C231.299 89.6858 231.093 90.3036 231.093 90.8185L230.99 91.6422L230.887 92.5689L230.785 93.3927V94.2164V95.1432V96.0699V96.8936L230.887 97.8204L230.99 98.6441L231.093 99.4678L231.196 100.292L231.402 101.218L231.608 102.145L231.916 102.969L232.225 103.793L232.533 104.616L232.945 105.543L233.357 106.367L233.768 107.19L234.282 108.014L234.797 108.838L235.311 109.662L237.06 112.133L237.677 112.957L238.295 113.678L238.912 114.398L239.632 115.016L240.352 115.634L241.072 116.252L241.793 116.87L242.513 117.384L243.233 117.899L243.953 118.414L244.776 118.826L245.599 119.238L246.422 119.65L247.245 120.062L248.068 120.371L248.891 120.679L249.714 120.988L250.537 121.297L251.36 121.503L252.183 121.709L253.006 121.812L253.829 121.915C254.344 122.018 254.961 122.121 255.476 122.121C255.99 122.121 256.607 122.224 257.225 122.224C257.842 122.224 258.356 122.224 258.973 122.224C259.488 122.224 260.105 122.121 260.62 122.121L261.443 122.018L262.266 121.915L263.089 121.812L263.912 121.606L264.735 121.4L265.558 121.194C266.381 120.988 267.204 120.679 268.027 120.371C268.541 120.165 269.056 119.959 269.57 119.65L270.393 119.238L271.113 118.826L271.833 118.414L272.554 118.002L274.611 116.458L275.331 115.943L275.949 115.325L276.566 114.707L277.183 114.089L277.8 113.472L278.418 112.751L278.932 112.03L279.447 111.309L279.961 110.588L280.475 109.868L280.887 109.044L281.298 108.22L281.71 107.396L282.121 106.573L282.43 105.749L282.636 105.44L282.841 105.028L283.047 104.616L283.253 104.204L283.356 103.793L283.562 103.381L283.665 102.969L283.767 102.557L283.87 102.145L284.076 101.733L284.179 101.321L284.385 100.909L284.488 100.498L284.796 99.6738L284.899 99.1589L285.002 98.6441L285.208 98.2322L285.311 97.8204L285.413 97.3055L285.722 96.3788L286.031 95.452L286.237 95.0402L286.545 94.1135L286.854 93.1868L286.957 92.6719L287.265 91.8481L287.471 91.3333L287.78 90.5096L288.191 89.5828L288.397 89.1709L288.603 88.7591L289.22 87.5235L289.632 86.6997C291.175 84.0225 293.027 81.7572 295.187 80.0067C297.553 78.5652 300.228 77.5355 303.315 76.9177L304.24 76.8147L305.681 76.6088L306.195 76.5058H306.71L307.635 76.4028H308.561H309.076H310.002H310.516H311.545H312.471H312.985H313.911H314.837H315.351H315.763H316.277H316.792H317.306H318.232H318.644H319.158H319.569H320.084H320.495H320.907H321.318L321.73 76.2999H322.141H322.553H322.965H323.376L323.788 76.1969H324.713L325.639 76.0939L326.565 75.991L327.491 75.785L328.417 75.5791L329.343 75.3731L330.269 75.1672L331.092 74.8583L331.915 74.5494L332.738 74.2405L333.561 73.9316L334.384 73.5197L335.104 73.1078L335.824 72.6959L336.545 72.1811L338.602 70.6366L339.219 70.1217L339.837 69.6069L340.454 68.9891L341.071 68.3713C341.483 67.9594 341.894 67.5475 342.306 67.1356C342.82 66.5178 343.335 65.797 343.849 65.0763L344.363 64.3555L344.775 63.6347L345.186 62.9139L345.598 62.1931L346.01 61.3694L346.421 60.6486C346.627 60.1338 346.833 59.6189 347.038 59.1041C347.244 58.5892 347.45 57.9714 347.656 57.4566C347.861 56.9417 347.964 56.3239 348.067 55.8091C348.17 55.2942 348.376 54.6764 348.376 54.1616L348.479 53.3378L348.582 52.5141L348.684 51.6903L348.787 50.8666V49.9399V49.0131V48.1894L348.684 47.2627L348.582 46.336L348.479 45.5122L348.376 44.6884L348.17 43.7617L347.964 42.835L347.656 42.0113L347.347 41.1875L347.038 40.3637L346.627 39.437L346.215 38.6133L345.804 37.7895L345.289 36.9658L344.775 36.142L344.261 35.3183L342.512 32.847L341.791 31.7144ZM283.87 44.8944C282.43 53.8526 273.994 59.9278 265.043 58.4863C256.093 56.9417 250.023 48.4983 251.463 39.54C253.006 30.5817 261.443 24.5066 270.393 25.9481C279.344 27.4926 285.413 35.9361 283.87 44.8944ZM313.911 86.9056C304.961 85.3611 296.525 91.4363 294.981 100.395C293.541 109.353 299.611 117.796 308.561 119.341C317.512 120.782 325.948 114.707 327.491 105.749C328.932 96.7906 322.862 88.3472 313.911 86.9056ZM230.167 9.47311L229.55 8.75235L228.933 8.03155L228.213 7.41373L227.492 6.79591L226.772 6.17813L226.052 5.56031L225.435 4.94249L224.715 4.42765L223.994 3.9128L223.171 3.50093L222.348 3.08906L221.525 2.67716L220.702 2.26529L219.879 1.9564L219.056 1.64748L218.233 1.33858L217.41 1.02969L216.587 0.823738L215.764 0.617788L214.941 0.411869L214.118 0.308894C213.604 0.205925 212.986 0.102944 212.472 0.102944C211.855 -2.51404e-05 211.34 0 210.723 0C210.106 0 209.591 0 208.974 0C208.46 0 207.842 0.102944 207.328 0.102944L206.505 0.205919L205.682 0.308894L204.859 0.411869L204.036 0.617788L203.213 0.823738L202.39 1.02969C201.567 1.33859 200.744 1.54452 199.921 1.85343C199.406 2.05936 198.892 2.26531 198.377 2.57422L197.554 2.98609L196.834 3.39796L196.114 3.80983L195.394 4.22169L194.674 4.73654L193.954 5.25138L193.233 5.76623L192.616 6.28107L191.999 6.89889L191.382 7.51671L190.764 8.13453L190.147 8.75235L189.53 9.47311L189.015 10.1939L188.501 10.9147L187.987 11.6355L187.472 12.4592L187.061 13.283L186.649 14.1067L186.238 14.9305L185.826 15.7542L185.415 16.6809L185.209 16.9898L185.003 17.4017L184.797 17.8136L184.592 18.2255L184.489 18.6373L184.283 19.0492L184.18 19.4611L184.077 19.873L183.974 20.2848L183.769 20.6967L183.666 21.1086L183.46 21.5205L183.357 21.9323L183.048 22.8591L182.946 23.2709L182.74 23.6828L182.637 24.1977L182.534 24.6095L182.431 25.1244L182.122 26.0511L181.814 26.9778L181.608 27.3897L181.505 27.9045L181.402 28.4194L181.094 29.3461L180.888 29.758L180.579 30.5817L180.374 31.0966L180.065 31.9203L179.653 32.847L179.448 33.2589L179.242 33.6708L178.625 34.9064L178.213 35.7302L178.007 36.142L177.596 36.9658L177.39 37.3777L177.184 37.6866L176.979 38.0984L176.773 38.4073C176.464 38.8192 176.258 39.1281 175.95 39.437C175.641 39.7459 175.435 40.0548 175.127 40.4667C174.509 41.1875 173.686 41.8053 172.863 42.4231C172.04 43.0409 171.217 43.5558 170.291 43.9677C169.88 44.1736 169.468 44.2766 169.057 44.4825C168.645 44.6884 168.234 44.7914 167.822 44.8944L167.411 44.9973L166.999 45.1003L166.588 45.2033L166.176 45.3063L165.25 45.5122L164.839 45.6152L163.913 45.7181L162.473 45.9241L161.958 46.027L161.547 46.13L160.621 46.233H159.695H159.18H158.254H157.74H156.711H156.197H155.682H155.168H154.242H153.316H152.802H152.39H151.876H151.362H150.95H150.024H149.613H149.098H148.687H148.172H147.761H147.349H146.938L146.526 46.336H146.115H145.703H145.292H144.88H144.469L143.543 46.4389L142.617 46.5419L141.691 46.6448L140.765 46.8508L139.839 47.0567L138.913 47.2627L138.09 47.5716L137.267 47.8805L136.444 48.1894L135.621 48.4983L134.798 48.8072L133.975 49.2191L133.255 49.6309L132.535 50.0428L131.814 50.4547L131.094 50.9696L130.374 51.4844L129.654 51.9992L129.037 52.5141L128.419 53.0289L127.802 53.6467L127.185 54.2645C126.773 54.6764 126.362 55.0883 125.95 55.5002C125.436 56.118 124.921 56.8388 124.304 57.5595L123.79 58.2803L123.378 59.0011L122.967 59.7219L122.555 60.4427L122.144 61.2664L121.732 61.9872C121.526 62.502 121.321 63.0169 121.115 63.5317C120.909 64.0466 120.703 64.6644 120.498 65.1792C120.292 65.6941 120.189 66.2089 120.086 66.8267C119.983 67.3416 119.778 67.9594 119.778 68.4742L119.675 69.298L119.572 70.2247L119.469 71.0485V71.8722V72.7989V73.7256V74.5494L119.572 75.4761L119.675 76.2999L119.778 77.1236L119.88 77.9474L120.086 78.8741L120.292 79.8008L120.601 80.6245L120.909 81.4483L121.218 82.2721L121.629 83.1988L122.041 84.0225L122.452 84.8463L122.967 85.67L123.481 86.4938L123.996 87.3175L125.745 89.7888L126.362 90.6125L126.979 91.3333L127.596 92.0541L128.317 92.6719L129.037 93.2897L129.757 93.9075L130.477 94.5253L131.197 95.0402L131.917 95.555L132.637 96.0699L133.461 96.4817L134.284 96.8936L135.107 97.3055L135.93 97.7174L136.753 98.0263L137.576 98.3352L138.399 98.6441L139.222 98.953L140.045 99.1589L140.868 99.3649L141.691 99.4678L142.514 99.5708C143.028 99.6738 143.646 99.7767 144.16 99.7767C144.674 99.7767 145.292 99.8797 145.909 99.8797C146.526 99.8797 147.041 99.8797 147.658 99.8797C148.172 99.8797 148.79 99.7767 149.304 99.7767L150.127 99.6738L150.95 99.5708L151.773 99.4678L152.596 99.2619L153.419 99.056L154.242 98.85C155.065 98.6441 155.888 98.3352 156.711 98.0263C157.226 97.8203 157.74 97.6144 158.254 97.3055L159.077 96.8936L159.798 96.4817L160.518 96.0699L161.238 95.658L163.296 94.1135L164.016 93.5986L164.633 92.9808L165.25 92.363L165.868 91.7452L166.485 91.1274L167.102 90.4066L167.617 89.6858L168.131 88.965L168.645 88.2442L169.16 87.5235L169.571 86.6997L169.983 85.876L170.394 85.0522L170.806 84.2285L171.114 83.4047L171.32 83.0958L171.526 82.6839L171.732 82.2721L171.937 81.8602L172.04 81.4483L172.246 81.0364L172.349 80.6245L172.452 80.2127L172.555 79.8008L172.76 79.3889L172.863 78.977L173.069 78.5652L173.172 78.1533L173.481 77.3295L173.584 76.8147L173.686 76.2999L173.892 75.888L173.995 75.4761L174.098 74.9613L174.407 74.0346L174.715 73.1078L174.921 72.6959L175.23 71.7692L175.538 70.8425L175.641 70.3277L175.95 69.5039L176.155 68.9891L176.464 68.1653L176.876 67.2386L177.081 66.8267L177.287 66.4149L177.904 65.1792L178.316 64.3555C179.859 61.6783 181.711 59.413 183.871 57.6625C186.238 56.221 188.913 55.1913 191.999 54.5735L192.925 54.4705L194.365 54.2645L194.88 54.1616H195.394L196.32 54.0586H197.246H197.76H198.686H199.201H200.229H201.155H201.67H202.596H203.521H204.036H204.447H204.962H205.476H205.991H206.916H207.328H207.842H208.254H208.768H209.18H209.591H210.003L210.414 53.9556H210.826H211.237H211.649H212.06L212.472 53.8527H213.398L214.324 53.7497L215.25 53.6467L216.176 53.4408L217.102 53.2348L218.027 53.0289L218.953 52.823L219.776 52.5141L220.599 52.2052L221.422 51.8963L222.245 51.5873L223.069 51.1755L223.789 50.7636L224.509 50.3517L225.229 49.8369L227.287 48.2924L227.904 47.7775L228.521 47.2627L229.138 46.6448L229.756 46.027C230.167 45.6152 230.579 45.2033 230.99 44.7914C231.505 44.1736 232.019 43.4528 232.533 42.732L233.048 42.0113L233.459 41.2905L233.871 40.5697L234.282 39.8489L234.694 39.0252L235.105 38.3044C235.311 37.7895 235.517 37.2747 235.723 36.7598C235.928 36.245 236.134 35.6272 236.34 35.1123C236.546 34.5975 236.649 33.9797 236.751 33.4649C236.854 32.95 237.06 32.3322 237.06 31.8173L237.163 30.9936L237.266 30.1698L237.369 29.3461L237.472 28.5223V27.5956V26.6689V25.8451L237.369 24.9184L237.266 23.9917L237.163 23.168L237.06 22.3442L236.854 21.4175L236.649 20.4908L236.34 19.667L236.031 18.8433L235.723 18.0195L235.311 17.0928L234.9 16.2691L234.488 15.4453L233.974 14.6215L233.459 13.7978L232.945 12.974L231.196 10.5028L230.167 9.47311ZM202.287 64.6644C193.336 63.1199 184.9 69.195 183.357 78.1533C181.917 87.1116 187.987 95.555 196.937 97.0996C205.888 98.5411 214.324 92.466 215.867 83.5077C217.307 74.6523 211.237 66.1059 202.287 64.6644ZM90.7655 42.5261C81.815 40.9816 73.3789 47.0567 71.8357 56.015C70.3954 64.9733 76.4653 73.4167 85.4158 74.9613C94.3663 76.4028 102.802 70.3277 104.346 61.3694C105.786 52.4111 99.716 43.9677 90.7655 42.5261Z" fill="url(#paint0_linear_4_2899)"/>
<defs>
<linearGradient id="paint0_linear_4_2899" x1="210.118" y1="33.5437" x2="210.118" y2="213.623" gradientUnits="userSpaceOnUse">
<stop offset="0.2128" stop-color="#009BA4"/>
<stop offset="1" stop-color="#0069B4"/>
</linearGradient>
</defs>
</svg>
