<svg width="32" height="32" viewBox="0 0 32 32" fill="none" xmlns="http://www.w3.org/2000/svg">
<path d="M6 12H26C26.1751 12 26.3485 12.0345 26.5102 12.1015C26.672 12.1685 26.819 12.2667 26.9428 12.3905C27.0666 12.5143 27.1648 12.6613 27.2318 12.8231C27.2988 12.9849 27.3333 13.1582 27.3333 13.3333V24.6667C27.3333 25.0203 27.1929 25.3594 26.9428 25.6095C26.6928 25.8595 26.3536 26 26 26H6V29.3333C6 29.4209 6.01724 29.5076 6.05075 29.5885C6.08425 29.6693 6.13336 29.7428 6.19526 29.8047C6.25717 29.8666 6.33066 29.9158 6.41154 29.9493C6.49243 29.9828 6.57912 30 6.66667 30H29.3333C29.5101 30 29.6797 29.9298 29.8047 29.8047C29.9298 29.6797 30 29.5101 30 29.3333V9.65067L29.6847 9.33333H25.7307C24.918 9.33333 24.1387 9.01052 23.5641 8.43591C22.9895 7.8613 22.6667 7.08196 22.6667 6.26933V2.27067L22.3973 2H6.66667C6.57912 2 6.49243 2.01724 6.41154 2.05075C6.33066 2.08425 6.25717 2.13336 6.19526 2.19526C6.13336 2.25717 6.08425 2.33066 6.05075 2.41154C6.01724 2.49243 6 2.57912 6 2.66667V12ZM4 26H1.33333C0.979711 26 0.640573 25.8595 0.390524 25.6095C0.140476 25.3594 0 25.0203 0 24.6667L0 13.3333C0 13.1582 0.0344877 12.9849 0.101494 12.8231C0.1685 12.6613 0.266713 12.5143 0.390524 12.3905C0.514336 12.2667 0.661321 12.1685 0.823089 12.1015C0.984856 12.0345 1.15824 12 1.33333 12H4V2.66667C4 1.95942 4.28095 1.28115 4.78105 0.781049C5.28115 0.280952 5.95942 0 6.66667 0H23.23L32 8.82667V29.3333C32 30.0406 31.719 30.7189 31.219 31.219C30.7189 31.719 30.0406 32 29.3333 32H6.66667C5.95942 32 5.28115 31.719 4.78105 31.219C4.28095 30.7189 4 30.0406 4 29.3333V26ZM2.76467 14.7653V23.3333H4.16867V20.0453H6.29267C8.38067 20.0453 9.42467 19.1573 9.42467 17.3933C9.42467 15.6413 8.38067 14.7653 6.31667 14.7653H2.76467ZM4.16867 15.9653H6.20867C6.82067 15.9653 7.27667 16.0733 7.56467 16.3013C7.85267 16.5173 8.00867 16.8773 8.00867 17.3933C8.00867 17.9093 7.86467 18.2813 7.57667 18.5093C7.28867 18.7253 6.83267 18.8453 6.20867 18.8453H4.16867V15.9653ZM10.6247 14.7653V23.3333H13.7567C15.1487 23.3333 16.1927 22.9493 16.9127 22.1813C17.5967 21.4493 17.9447 20.4053 17.9447 19.0493C17.9447 17.6813 17.5967 16.6373 16.9127 15.9173C16.1927 15.1493 15.1487 14.7653 13.7567 14.7653H10.6247ZM12.0287 15.9653H13.4927C14.5607 15.9653 15.3407 16.2053 15.8327 16.6973C16.3127 17.1773 16.5527 17.9693 16.5527 19.0493C16.5527 20.1053 16.3127 20.8853 15.8327 21.3893C15.3407 21.8813 14.5607 22.1333 13.4927 22.1333H12.0287V15.9653ZM19.2647 14.7653V23.3333H20.6687V19.5413H24.8567V18.3413H20.6687V15.9653H25.1087V14.7653H19.2647Z" fill="#EA4318"/>
</svg>
