<svg width="110" height="85" viewBox="0 0 110 85" fill="none" xmlns="http://www.w3.org/2000/svg">
<path d="M109.995 76.9423V41.4187C109.995 41.4187 86.167 53.316 54.6166 53.316C25.5916 53.316 0.00108361 41.0819 0.00108361 41.0819V76.9535C0.00108361 84.4062 7.07214 84.294 7.07214 84.294H102.531C110.444 84.2827 109.995 76.9423 109.995 76.9423ZM62.1478 60.6901C62.1478 62.7216 60.4979 64.2481 58.4776 64.2481H51.1372C49.1057 64.2481 47.467 62.7216 47.467 60.6901V56.9076L62.2713 56.7954C62.2601 56.7842 62.1478 58.6586 62.1478 60.6901ZM0.00108361 37.277C0.00108361 37.277 31.327 49.5897 54.7625 49.5897C80.3867 49.5897 109.984 37.1648 109.984 37.1648V22.0238C109.984 14.3354 102.408 14.6833 102.408 14.6833H73.1585V7.23065C73.1585 -0.345482 66.0425 0.00245667 66.0425 0.00245667H43.7968C36.8043 0.00245667 36.5686 7.3429 36.5686 7.3429V14.6833H7.19561C-0.257067 14.6833 0.00108361 22.0238 0.00108361 22.0238V37.277ZM62.2601 45.998L47.4557 45.8858C47.4557 45.8858 47.568 44.2359 47.568 42.2156C47.568 40.1953 49.2179 38.5453 51.2382 38.5453H58.5899C60.6214 38.5453 62.2601 40.1953 62.2601 42.2156V45.998ZM43.7968 10.7774C43.7968 7.44391 47.467 7.21944 47.467 7.21944H62.2713C66.1772 7.21944 65.9415 11.2376 65.9415 11.2376L65.8293 14.6833H43.7968V10.7774Z" fill="white"/>
</svg>
